<svg width="26" height="27" viewBox="0 0 26 27" fill="none" xmlns="http://www.w3.org/2000/svg">
<rect y="0.351562" width="26" height="26" rx="13" fill="#848895"/>
<g clip-path="url(#clip0_1_335)">
<path d="M10.3588 7.79736C9.8505 7.79736 8.31792 8.41909 8.04296 8.54334C7.768 8.66759 7.46281 9.05546 7.11651 9.69561C6.76974 10.3358 6.49148 11.0841 6.03936 12.1849C5.58771 13.2857 5.48235 15.4078 5.49747 16.0555C5.51259 16.7033 5.58676 17.2092 6.25054 17.5924C6.91384 17.9751 7.5006 18.3757 8.11808 18.6166C8.73602 18.8576 9.15744 19.031 9.44373 18.79C9.73003 18.5491 9.91853 18.1272 9.91853 18.1272C9.91853 18.1272 10.1897 17.7507 9.67759 17.5248C9.16547 17.2985 8.90941 17.1403 8.93161 16.9069C8.95429 16.6735 8.99161 16.5455 9.11964 16.5757C9.24767 16.6059 9.54956 17.1478 10.7094 17.3963C11.8692 17.6448 12.9998 17.6075 12.9998 17.6075C12.9998 17.6075 14.1308 17.6453 15.2906 17.3963C16.4504 17.1478 16.7519 16.6059 16.8799 16.5757C17.0079 16.5455 17.0452 16.6735 17.0679 16.9064C17.0906 17.1403 16.8345 17.2985 16.3224 17.5248C15.8103 17.7507 16.0815 18.1272 16.0815 18.1272C16.0815 18.1272 16.27 18.5486 16.5563 18.79C16.8421 19.031 17.264 18.8576 17.8814 18.6166C18.4989 18.3757 19.0862 17.9755 19.7495 17.5924C20.4132 17.2092 20.4874 16.7033 20.5025 16.0555C20.5176 15.4083 20.4123 13.2857 19.9602 12.1849C19.5085 11.0841 19.2298 10.3358 18.883 9.69561C18.5372 9.05546 18.2315 8.66759 17.957 8.54287C17.6821 8.41909 16.149 7.79736 15.6407 7.79736C15.1323 7.79736 14.9821 8.15169 14.9821 8.15169L14.8049 8.54334C14.8049 8.54334 13.6144 8.31704 13.0078 8.31657C12.4012 8.31657 11.1951 8.54334 11.1951 8.54334L11.0179 8.15122C11.0179 8.15122 10.8677 7.79736 10.3588 7.79736ZM10.4141 12.4972H10.433C11.1743 12.4972 11.7747 13.1458 11.7747 13.9456C11.7747 14.746 11.1743 15.3941 10.433 15.3941C9.69176 15.3941 9.0913 14.746 9.0913 13.9456C9.09082 13.1534 9.68042 12.508 10.4141 12.4972ZM15.567 12.4972H15.5859C16.3196 12.508 16.9087 13.1538 16.9087 13.9456C16.9087 14.746 16.3082 15.3941 15.567 15.3941C14.8253 15.3941 14.2253 14.746 14.2253 13.9456C14.2253 13.1458 14.8253 12.4972 15.567 12.4972Z" fill="#111111"/>
</g>
<defs>
<clipPath id="clip0_1_335">
<rect width="16" height="16" fill="white" transform="translate(5 5.35156)"/>
</clipPath>
</defs>
</svg>
