<svg width="26" height="27" viewBox="0 0 26 27" fill="none" xmlns="http://www.w3.org/2000/svg">
<rect y="0.351562" width="26" height="26" rx="13" fill="#848895"/>
<g clip-path="url(#clip0_1_343)">
<path fill-rule="evenodd" clip-rule="evenodd" d="M13 5.35156C8.58233 5.35156 5 9.0239 5 13.5539C5 17.1782 7.29233 20.2529 10.471 21.3372C10.871 21.4132 11.0177 21.1596 11.0177 20.9429C11.0177 20.7472 11.01 20.1012 11.0067 19.4159C8.781 19.9119 8.31133 18.4479 8.31133 18.4479C7.94733 17.4999 7.423 17.2479 7.423 17.2479C6.69733 16.7386 7.478 16.7492 7.478 16.7492C8.28133 16.8069 8.70433 17.5942 8.70433 17.5942C9.41767 18.8482 10.5757 18.4859 11.0323 18.2762C11.104 17.7462 11.3113 17.3842 11.54 17.1796C9.76333 16.9719 7.89533 16.2686 7.89533 13.1256C7.89533 12.2302 8.20767 11.4982 8.71967 10.9239C8.63633 10.7172 8.36267 9.8829 8.797 8.75323C8.797 8.75323 9.469 8.5329 10.9977 9.5939C11.6357 9.41223 12.3203 9.32123 13 9.3179C13.68 9.32123 14.365 9.41223 15.0043 9.5939C16.531 8.5329 17.202 8.75323 17.202 8.75323C17.6373 9.88323 17.3633 10.7172 17.2803 10.9239C17.7937 11.4982 18.1037 12.2302 18.1037 13.1256C18.1037 16.2762 16.2323 16.9699 14.4507 17.1729C14.7377 17.4276 14.9933 17.9266 14.9933 18.6919C14.9933 19.7892 14.9843 20.6726 14.9843 20.9429C14.9843 21.1612 15.1283 21.4169 15.5337 21.3362C18.7107 20.2506 21 17.1769 21 13.5539C21 9.0239 17.4183 5.35156 13 5.35156Z" fill="#111111"/>
<path fill-rule="evenodd" clip-rule="evenodd" d="M8.03 17.1286C8.01233 17.1696 7.95 17.1816 7.893 17.1536C7.835 17.1269 7.80233 17.0713 7.821 17.0303C7.83833 16.9883 7.901 16.977 7.959 17.0046C8.017 17.0316 8.05 17.088 8.03 17.1286ZM8.354 17.4993C8.316 17.5353 8.24133 17.5186 8.19067 17.4613C8.13833 17.4039 8.12867 17.3276 8.16733 17.291C8.20667 17.2543 8.279 17.2716 8.33134 17.3286C8.38367 17.3866 8.394 17.4626 8.354 17.4993ZM8.66934 17.9716C8.62067 18.0066 8.54033 17.9739 8.49067 17.9009C8.44167 17.8276 8.44167 17.7403 8.492 17.7053C8.54167 17.6703 8.62033 17.702 8.67067 17.7743C8.71967 17.8483 8.71967 17.936 8.66934 17.9716ZM9.10167 18.4283C9.05767 18.4776 8.96433 18.4643 8.896 18.3966C8.826 18.3306 8.80667 18.2366 8.85067 18.187C8.895 18.1373 8.989 18.1513 9.05767 18.2183C9.12733 18.2843 9.14833 18.379 9.10167 18.4283ZM9.69767 18.6929C9.67833 18.7573 9.58833 18.7863 9.49767 18.7593C9.40767 18.731 9.34833 18.6559 9.36633 18.5909C9.38533 18.5263 9.47567 18.4956 9.567 18.525C9.657 18.553 9.71667 18.6276 9.69767 18.6929ZM10.3527 18.7423C10.3547 18.81 10.278 18.8656 10.1827 18.867C10.087 18.8693 10.0097 18.8146 10.0087 18.748C10.0087 18.6796 10.084 18.6243 10.1793 18.6226C10.2747 18.6206 10.3527 18.675 10.3527 18.7423ZM10.9617 18.636C10.973 18.702 10.907 18.7696 10.8127 18.7876C10.7197 18.8049 10.6337 18.7643 10.622 18.699C10.6103 18.6313 10.6777 18.5633 10.7703 18.5456C10.865 18.529 10.9497 18.569 10.9617 18.6356V18.636Z" fill="#111111"/>
</g>
<defs>
<clipPath id="clip0_1_343">
<rect width="16" height="16" fill="white" transform="translate(5 5.35156)"/>
</clipPath>
</defs>
</svg>
