<svg width="26" height="27" viewBox="0 0 26 27" fill="none" xmlns="http://www.w3.org/2000/svg">
<rect y="0.351562" width="26" height="26" rx="13" fill="#848895"/>
<g clip-path="url(#clip0_1_339)">
<path d="M19.9695 13.3786C19.969 12.9529 19.7997 12.5448 19.4987 12.2437C19.1977 11.9427 18.7895 11.7734 18.3638 11.773C17.974 11.7725 17.5975 11.915 17.3056 12.1734C16.2437 11.4939 14.8269 11.0658 13.2641 11.0195L14.2205 7.74897L16.5683 8.18523C16.5683 8.20442 16.5643 8.22248 16.5654 8.24167C16.5794 8.5103 16.6994 8.76242 16.8991 8.9427C17.0987 9.12299 17.3617 9.21673 17.6304 9.20336C17.899 9.18927 18.151 9.06925 18.3313 8.86961C18.5115 8.66997 18.6052 8.40701 18.5918 8.13839C18.5778 7.86975 18.4578 7.61764 18.2582 7.43735C18.0585 7.25707 17.7955 7.16333 17.5268 7.17669C17.3557 7.1858 17.1897 7.23822 17.0443 7.32904C16.8989 7.41985 16.779 7.54609 16.6958 7.69592L16.695 7.69564L13.8658 7.16992L12.739 11.019C11.1723 11.0604 9.7509 11.4863 8.68452 12.1643C8.39388 11.9114 8.02146 11.7724 7.63619 11.773C7.21051 11.7735 6.80241 11.9428 6.50141 12.2438C6.2004 12.5448 6.03107 12.9529 6.03055 13.3786C6.03055 13.926 6.31245 14.4312 6.76903 14.7258C6.74049 14.8869 6.72586 15.0503 6.72529 15.2139C6.72529 17.5313 9.53475 19.4168 12.9881 19.4168C16.4416 19.4168 19.2504 17.5313 19.2504 15.2137C19.2504 15.0534 19.2358 14.8954 19.2095 14.7396C19.4413 14.5959 19.6327 14.3956 19.7656 14.1575C19.8985 13.9193 19.9685 13.6513 19.9692 13.3786H19.9695ZM10.0116 14.4712C10.0117 14.3417 10.0372 14.2134 10.0869 14.0937C10.1365 13.974 10.2092 13.8652 10.3008 13.7736C10.3925 13.682 10.5013 13.6094 10.621 13.5598C10.7407 13.5103 10.869 13.4848 10.9986 13.4848C11.1282 13.4849 11.2565 13.5104 11.3761 13.5601C11.4958 13.6097 11.6046 13.6824 11.6962 13.774C11.7878 13.8657 11.8604 13.9745 11.91 14.0942C11.9595 14.2139 11.985 14.3422 11.985 14.4718C11.9849 14.7335 11.8809 14.9844 11.6958 15.1694C11.5107 15.3544 11.2597 15.4583 10.998 15.4582C10.7363 15.4581 10.4854 15.3541 10.3004 15.169C10.1154 14.9839 10.0116 14.7329 10.0116 14.4712ZM15.3139 17.1402C15.2846 17.1706 14.5766 17.8911 12.9766 17.8911C11.3681 17.8911 10.7247 17.1608 10.6985 17.1297C10.6578 17.0787 10.6384 17.014 10.6444 16.9491C10.6505 16.8841 10.6814 16.8241 10.7307 16.7814C10.7801 16.7388 10.844 16.7169 10.9091 16.7204C10.9742 16.7239 11.0355 16.7525 11.08 16.8001C11.0947 16.8159 11.6314 17.3868 12.9763 17.3868C14.3449 17.3868 14.9448 16.7956 14.951 16.79C14.9984 16.7466 15.0606 16.723 15.1248 16.7238C15.189 16.7247 15.2505 16.75 15.2968 16.7946C15.343 16.8391 15.3705 16.8997 15.3737 16.9638C15.3769 17.028 15.3555 17.0909 15.3139 17.1399V17.1402ZM15.1178 15.458C14.9883 15.4581 14.86 15.4326 14.7403 15.3831C14.6205 15.3336 14.5118 15.261 14.4201 15.1694C14.3285 15.0778 14.2558 14.9691 14.2061 14.8494C14.1565 14.7298 14.1309 14.6015 14.1309 14.4719C14.1308 14.3424 14.1563 14.2141 14.2058 14.0944C14.2553 13.9747 14.3279 13.8659 14.4195 13.7742C14.5111 13.6826 14.6198 13.6099 14.7395 13.5602C14.8591 13.5106 14.9874 13.485 15.117 13.485C15.3786 13.4849 15.6296 13.5887 15.8147 13.7736C15.9998 13.9586 16.1038 14.2094 16.1039 14.4711C16.104 14.7327 16.0002 14.9837 15.8153 15.1688C15.6303 15.3539 15.3795 15.4579 15.1178 15.458Z" fill="#111111"/>
</g>
<defs>
<clipPath id="clip0_1_339">
<rect width="16" height="16" fill="white" transform="translate(5 5.35156)"/>
</clipPath>
</defs>
</svg>
