<svg width="25" height="23" viewBox="0 0 25 23" fill="none" xmlns="http://www.w3.org/2000/svg">
<path d="M24.4701 17.8456L20.4092 22.1998C20.3214 22.2944 20.215 22.3699 20.0967 22.4215C19.9785 22.4731 19.8508 22.4999 19.7217 22.5H0.471815C0.380004 22.5 0.290199 22.4731 0.213396 22.4228C0.136596 22.3725 0.0761331 22.3009 0.0394092 22.2168C0.00268544 22.1326 -0.0087041 22.0396 0.00663625 21.9491C0.0219766 21.8585 0.0633777 21.7744 0.125775 21.7071L4.18201 17.3529C4.26985 17.2584 4.3762 17.1829 4.4945 17.1312C4.61277 17.0796 4.74044 17.0529 4.86951 17.0527H24.1194C24.212 17.0508 24.3032 17.0764 24.3814 17.1261C24.4595 17.1759 24.5214 17.2477 24.5587 17.3324C24.5963 17.4172 24.6078 17.5112 24.592 17.6025C24.5762 17.6938 24.5338 17.7784 24.4701 17.8456ZM20.4092 9.07547C20.3211 8.98133 20.2146 8.90616 20.0964 8.85453C19.9782 8.80292 19.8507 8.77595 19.7217 8.77529H0.471815C0.380004 8.77533 0.290199 8.80215 0.213396 8.85247C0.136596 8.90277 0.0761331 8.97439 0.0394092 9.05854C0.00268544 9.14268 -0.0087041 9.2357 0.00663625 9.32622C0.0219766 9.41674 0.0633777 9.50085 0.125775 9.5682L4.18201 13.9246C4.27017 14.0188 4.37662 14.0939 4.49482 14.1456C4.61302 14.1972 4.74053 14.2242 4.86951 14.2248H24.1194C24.2111 14.2243 24.3005 14.1972 24.377 14.1467C24.4536 14.0962 24.5136 14.0246 24.55 13.9405C24.5865 13.8565 24.5977 13.7636 24.5821 13.6733C24.5668 13.583 24.5255 13.4991 24.4632 13.4319L20.4092 9.07547ZM0.471815 5.94736H19.7217C19.8508 5.94724 19.9785 5.9205 20.0967 5.86885C20.215 5.81721 20.3214 5.74173 20.4092 5.64715L24.4701 1.29301C24.5338 1.22576 24.5762 1.14115 24.592 1.04983C24.6078 0.958508 24.5963 0.864556 24.5587 0.779797C24.5214 0.695038 24.4595 0.623258 24.3814 0.57349C24.3032 0.523721 24.212 0.498187 24.1194 0.5001H4.86951C4.74044 0.500236 4.61277 0.526963 4.4945 0.578613C4.3762 0.630264 4.26985 0.705731 4.18201 0.800308L0.125775 5.15445C0.0633777 5.2218 0.0219766 5.3059 0.00663625 5.39642C-0.0087041 5.48694 0.00268544 5.57996 0.0394092 5.66411C0.0761331 5.74826 0.136596 5.81987 0.213396 5.87018C0.290199 5.9205 0.380004 5.94731 0.471815 5.94736Z" fill="url(#paint0_linear_1_72)"/>
<defs>
<linearGradient id="paint0_linear_1_72" x1="-1.5" y1="11.5" x2="21.6306" y2="0.887176" gradientUnits="userSpaceOnUse">
<stop offset="0.08" stop-color="#9945FF"/>
<stop offset="0.3" stop-color="#8752F3"/>
<stop offset="0.5" stop-color="#5497D5"/>
<stop offset="0.6" stop-color="#43B4CA"/>
<stop offset="0.72" stop-color="#28E0B9"/>
<stop offset="0.97" stop-color="#19FB9B"/>
</linearGradient>
</defs>
</svg>
