<svg width="26" height="27" viewBox="0 0 26 27" fill="none" xmlns="http://www.w3.org/2000/svg">
<rect y="0.351562" width="26" height="26" rx="13" fill="#848895"/>
<g clip-path="url(#clip0_1_331)">
<path d="M19.9118 9.60332C19.3913 9.83433 18.839 9.9857 18.2735 10.0523C18.8694 9.6961 19.3152 9.13511 19.5277 8.47415C18.9678 8.80659 18.3552 9.04083 17.7164 9.16672C17.4495 8.88196 17.1271 8.65507 16.7689 8.5001C16.4108 8.34514 16.0246 8.26541 15.6344 8.26587C14.0593 8.26587 12.7823 9.54292 12.7823 11.1183C12.7823 11.3415 12.8074 11.5591 12.8562 11.7682C10.4856 11.6491 8.38356 10.5138 6.97669 8.78798C6.72294 9.22331 6.58968 9.71835 6.59061 10.2222C6.59061 11.2117 7.09409 12.0849 7.85948 12.5963C7.40652 12.5819 6.96354 12.4595 6.56747 12.2393L6.56718 12.2754C6.56718 13.6572 7.55044 14.8097 8.85544 15.0722C8.43524 15.186 7.99466 15.2026 7.5671 15.1208C7.93032 16.2539 8.98357 17.0788 10.2316 17.1017C9.22125 17.8948 7.97351 18.3249 6.6891 18.3228C6.45909 18.3228 6.2319 18.3093 6.00867 18.2828C7.31283 19.121 8.83081 19.5659 10.3811 19.5643C15.6279 19.5643 18.4967 15.2181 18.4967 11.4488C18.4967 11.3252 18.4942 11.2018 18.4888 11.0793C19.0473 10.6761 19.5292 10.1762 19.9118 9.60332Z" fill="#111111"/>
</g>
<defs>
<clipPath id="clip0_1_331">
<rect width="16" height="16" fill="white" transform="translate(5 5.35156)"/>
</clipPath>
</defs>
</svg>
