<svg width="26" height="27" viewBox="0 0 26 27" fill="none" xmlns="http://www.w3.org/2000/svg">
<rect y="0.351562" width="26" height="26" rx="13" fill="#848895"/>
<g clip-path="url(#clip0_1_327)">
<path d="M20.5333 10.2181C20.5333 10.0848 20.3333 9.01815 19.8667 8.55148C19.2667 7.88481 18.6 7.81815 18.2667 7.81815H18.2C16.1333 7.68481 13.0667 7.68481 13 7.68481C13 7.68481 9.86666 7.68481 7.79999 7.81815H7.73333C7.39999 7.81815 6.73333 7.88481 6.13333 8.55148C5.66666 9.08481 5.46666 10.1515 5.46666 10.2848C5.46666 10.3515 5.33333 11.5515 5.33333 12.8181V13.9515C5.33333 15.2181 5.46666 16.4181 5.46666 16.4848C5.46666 16.6181 5.66666 17.6848 6.13333 18.1515C6.66666 18.7515 7.33333 18.8181 7.73333 18.8848H7.93333C9.13333 19.0181 12.8 19.0181 12.9333 19.0181C12.9333 19.0181 16.0667 19.0181 18.1333 18.8848H18.2C18.5333 18.8181 19.2 18.7515 19.8 18.1515C20.2667 17.6181 20.4667 16.5515 20.4667 16.4181C20.4667 16.3515 20.6 15.1515 20.6 13.8848V12.7515C20.6667 11.5515 20.5333 10.2848 20.5333 10.2181ZM15.6 13.4848L11.6 15.6181C11.5333 15.6181 11.5333 15.6848 11.4667 15.6848C11.4 15.6848 11.3333 15.6848 11.3333 15.6181C11.2667 15.5515 11.2 15.4848 11.2 15.3515V11.0181C11.2 10.8848 11.2667 10.8181 11.3333 10.7515C11.4 10.6848 11.5333 10.6848 11.6667 10.7515L15.6667 12.8848C15.8 12.9515 15.8667 13.0181 15.8667 13.1515C15.8667 13.2848 15.7333 13.4181 15.6 13.4848Z" fill="#111111"/>
</g>
<defs>
<clipPath id="clip0_1_327">
<rect width="16" height="16" fill="white" transform="translate(5 5.35156)"/>
</clipPath>
</defs>
</svg>
