<svg width="560" height="51" viewBox="0 0 560 51" fill="none" xmlns="http://www.w3.org/2000/svg">
<path d="M57.2228 47.4676H45.9836C45.9621 47.4549 45.9237 47.4244 45.8681 47.3815C45.8428 47.3639 45.8126 47.3386 45.782 47.3171C45.5633 47.1497 45.2113 46.8969 44.9672 46.7679C43.4358 45.979 41.8663 45.2579 40.3703 44.4047C39.4134 43.8642 38.5221 43.1911 37.6641 42.4923C36.9996 41.9519 36.8794 41.176 37.2781 40.4165C38.0882 38.8724 38.5436 37.1576 39.6929 35.7806C40.0573 35.3428 40.3017 34.7467 40.4259 34.1857C40.512 33.7527 40.4902 33.1136 40.2286 32.8136C39.6714 32.1705 39.5385 31.5011 39.6108 30.7164C39.645 30.3215 39.6235 29.9277 39.6108 29.528C39.5209 26.9803 38.0882 24.9994 35.7125 24.502C34.4646 24.245 33.1736 24.2108 31.9091 24.4072C29.2842 24.8235 27.6981 26.8083 27.6033 29.4635C27.5818 30.0851 27.6502 30.7076 27.5779 31.3203C27.5349 31.7278 27.3981 32.1783 27.1537 32.495C26.6905 33.1087 26.5449 33.7253 26.841 34.425C27.0511 34.9186 27.227 35.467 27.5662 35.8615C28.733 37.2298 29.1395 38.9703 29.9633 40.5017C30.3318 41.1787 30.2077 41.8911 29.6204 42.3975C28.8659 43.0534 28.0851 43.7225 27.2192 44.2162C25.7181 45.0654 24.1526 45.7896 22.6046 46.5488C22.244 46.7247 21.7036 47.102 21.4124 47.3159C21.3782 47.3376 21.344 47.363 21.3176 47.3806C21.258 47.4235 21.2189 47.4537 21.2062 47.4667H10L10.0469 47.3806L10.0811 47.3159L33.6114 3.73145L57.1419 47.318L57.176 47.3824L57.2228 47.4685V47.4676Z" fill="white"/>
<path d="M66.8095 17.8088H70.9425L77.5292 33.3911H72.9322L71.8053 30.6284H65.8373L64.7319 33.3911H60.2228L66.8095 17.8088ZM70.5672 27.2911L68.8434 22.8925L67.0969 27.2911H70.5672Z" fill="white"/>
<path d="M80.5292 17.864H84.5298L90.8956 26.0417V17.864H95.14V33.3359H91.3823L84.7733 24.8485V33.3359H80.5292V17.864Z" fill="white"/>
<path d="M104.019 27.5447L98.14 17.864H103.024L106.207 23.4998L109.412 17.864H114.208L108.329 27.4782V33.3359H104.019V27.5447Z" fill="white"/>
<path d="M117.208 17.864H125.143C127.088 17.864 128.459 18.3507 129.365 19.2566C129.984 19.8752 130.36 20.6932 130.36 21.7545V21.7984C130.36 23.5888 129.343 24.6501 127.972 25.2462C129.851 25.8648 131.045 26.9261 131.045 29.0262V29.0702C131.045 31.7224 128.878 33.3359 125.187 33.3359H117.208V17.864ZM124.082 24.0305C125.386 24.0305 126.116 23.5888 126.116 22.6819V22.6379C126.116 21.7984 125.452 21.3118 124.171 21.3118H121.386V24.0305H124.082ZM124.7 29.8882C126.004 29.8882 126.756 29.38 126.756 28.4731V28.4291C126.756 27.5896 126.092 27.0365 124.656 27.0365H121.385V29.8882H124.7Z" fill="white"/>
<path d="M134.045 25.6444V25.6005C134.045 21.1579 137.626 17.5547 142.4 17.5547C147.173 17.5547 150.71 21.1129 150.71 25.5555V25.5995C150.71 30.0421 147.129 33.6452 142.355 33.6452C137.581 33.6452 134.045 30.087 134.045 25.6444ZM146.334 25.6444V25.6005C146.334 23.3684 144.72 21.4227 142.355 21.4227C140.013 21.4227 138.443 23.3235 138.443 25.5555V25.5995C138.443 27.8315 140.057 29.7773 142.4 29.7773C144.765 29.7773 146.335 27.8765 146.335 25.6444H146.334Z" fill="white"/>
<path d="M153.71 17.864H159.678C165.204 17.864 168.409 21.0469 168.409 25.512V25.556C168.409 30.0211 165.16 33.3359 159.591 33.3359H153.711V17.864H153.71ZM159.745 29.5344C162.309 29.5344 164.01 28.1193 164.01 25.6224V25.5785C164.01 23.1031 162.308 21.6665 159.745 21.6665H157.998V29.5354H159.745V29.5344Z" fill="white"/>
<path d="M171.409 17.864H175.719V33.3359H171.409V17.864Z" fill="white"/>
<path d="M178.719 17.864H191.163V21.5111H182.963V23.8536H190.389V27.2349H182.963V29.6888H191.274V33.3359H178.719V17.864Z" fill="white"/>
<path d="M194.274 31.0369L196.661 28.1853C198.186 29.401 199.888 30.0421 201.678 30.0421C202.827 30.0421 203.446 29.6443 203.446 28.9808V28.9368C203.446 28.2957 202.938 27.942 200.838 27.4563C197.544 26.7048 195.003 25.7764 195.003 22.5934V22.5495C195.003 19.6763 197.279 17.5987 200.992 17.5987C203.622 17.5987 205.678 18.3062 207.358 19.6539L205.214 22.6824C203.799 21.6875 202.252 21.1569 200.882 21.1569C199.843 21.1569 199.335 21.5986 199.335 22.1517V22.1957C199.335 22.9033 199.865 23.212 202.009 23.6987C205.568 24.4727 207.778 25.622 207.778 28.5176V28.5615C207.778 31.722 205.28 33.6012 201.523 33.6012C198.781 33.6012 196.174 32.7393 194.274 31.0369Z" fill="white"/>
</svg>
