<svg width="354" height="21" viewBox="0 0 354 21" fill="none" xmlns="http://www.w3.org/2000/svg">
<path d="M72.888 12.2952H71.2713C71.1461 12.292 71.0276 12.2416 70.9389 12.1544C70.8503 12.0672 70.7994 11.9499 70.7958 11.8265V11.4516C70.7994 11.3284 70.8503 11.211 70.9389 11.1238C71.0276 11.0366 71.1461 10.9862 71.2713 10.983H72.6539C72.7797 10.983 72.9006 10.9336 72.9898 10.8457C73.0791 10.7579 73.1294 10.6387 73.1294 10.5144C73.1294 10.3901 73.0791 10.2709 72.9898 10.183C72.9006 10.0951 72.7797 10.0457 72.6539 10.0457H71.2587C71.1336 10.0426 71.015 9.9922 70.9264 9.90495C70.8377 9.81777 70.7862 9.7004 70.7833 9.57711V9.2022C70.7862 9.07896 70.8377 8.96154 70.9264 8.87435C71.015 8.78711 71.1336 8.73675 71.2587 8.73358H72.8437C72.9701 8.73358 73.091 8.68423 73.1803 8.59633C73.2695 8.50843 73.3192 8.38926 73.3192 8.26495C73.3192 8.1407 73.2695 8.02148 73.1803 7.93358C73.091 7.84567 72.9701 7.79633 72.8437 7.79633H70.9419C70.8677 7.79483 70.7952 7.81908 70.7371 7.86477C70.6791 7.9104 70.6395 7.97465 70.6246 8.04627L69.6102 12.7638V12.8575C69.6282 12.967 69.6868 13.0661 69.7749 13.1354C69.8629 13.2047 69.9737 13.2393 70.0856 13.2324H72.8755C73.0018 13.2324 73.1228 13.183 73.212 13.0952C73.3012 13.0073 73.3509 12.8881 73.3509 12.7638C73.3509 12.6395 73.3012 12.5203 73.212 12.4324C73.1228 12.3445 73.0018 12.2952 72.8755 12.2952H72.888Z" fill="white"/>
<path d="M37.6998 7.82764H37.0657C36.9725 7.82877 36.8812 7.85578 36.8029 7.90548C36.7243 7.95518 36.6619 8.02566 36.6219 8.10877L35.2271 11.4205C35.2271 11.4287 35.2235 11.4367 35.2179 11.4425C35.2119 11.4484 35.2039 11.4516 35.1953 11.4516C35.1637 11.4516 35.1637 11.4516 35.1637 11.4205L33.7688 8.10877C33.7349 8.02428 33.6804 7.94919 33.6103 7.89009C33.4835 7.79638 33.325 7.92135 33.2933 8.07758L32.2471 12.8576C32.2389 12.9116 32.25 12.967 32.2788 13.0138C32.3169 13.0893 32.3755 13.1528 32.4485 13.197C32.5213 13.2412 32.6053 13.2643 32.691 13.2637H32.8811C33.0041 13.2575 33.1199 13.2057 33.2058 13.1188C33.2917 13.0319 33.3408 12.9163 33.344 12.7951V9.73339C33.344 9.72506 33.3475 9.71716 33.3532 9.71129C33.3592 9.70542 33.3671 9.70213 33.3757 9.70213C33.3843 9.70213 33.3922 9.70542 33.3982 9.71129C33.4039 9.71716 33.4074 9.72506 33.4074 9.73339L34.7071 12.9513C34.7417 13.0382 34.8032 13.1122 34.8828 13.1627C34.9626 13.2131 35.0565 13.2376 35.151 13.2325H35.2778C35.371 13.2313 35.4623 13.2043 35.5406 13.1546C35.6192 13.1049 35.6816 13.0345 35.7216 12.9513L37.0213 9.76464C37.0213 9.75632 37.0249 9.74841 37.0305 9.74255C37.0365 9.73668 37.0445 9.73339 37.0531 9.73339C37.0616 9.73339 37.0695 9.73668 37.0756 9.74255C37.0813 9.74841 37.0847 9.75632 37.0847 9.76464V12.7951C37.0879 12.9184 37.1389 13.0358 37.2277 13.123C37.3162 13.2102 37.435 13.2606 37.5602 13.2637H37.7505C37.8757 13.2606 37.9946 13.2102 38.083 13.123C38.1718 13.0358 38.2228 12.9184 38.226 12.7951V8.29626C38.2041 8.17129 38.1407 8.05722 38.0453 7.97219C37.9496 7.88722 37.8282 7.83632 37.6998 7.82764Z" fill="white"/>
<path d="M52.2187 10.3582H50.8238C50.7062 10.3582 50.5934 10.4043 50.51 10.4863C50.4267 10.5683 50.3801 10.6795 50.3801 10.7956C50.3801 10.9116 50.4267 11.0228 50.51 11.1049C50.5934 11.1868 50.7062 11.2329 50.8238 11.2329H51.0775C51.3311 11.2329 51.5847 11.4516 51.4578 11.7016C51.2677 12.1077 50.8873 12.3264 50.2849 12.3264C49.3973 12.3264 48.8584 11.6703 48.8584 10.5456C48.8584 9.42091 49.429 8.76486 50.2849 8.76486C50.4834 8.75474 50.6812 8.7954 50.859 8.88307C51.0369 8.97067 51.1884 9.10217 51.2993 9.26468C51.3488 9.35576 51.4217 9.43253 51.5108 9.48732C51.5999 9.54211 51.7017 9.57307 51.8066 9.57714H52.0919C52.1559 9.58223 52.2206 9.57193 52.2796 9.54702C52.3389 9.52211 52.3908 9.48336 52.4314 9.43414C52.472 9.38492 52.4999 9.32672 52.5126 9.2645C52.5253 9.20235 52.5221 9.13804 52.504 9.07726C52.3062 8.66762 51.9901 8.32468 51.5955 8.09127C51.2005 7.85786 50.7449 7.74438 50.2849 7.7651C48.8267 7.7651 47.7171 8.79606 47.7171 10.5456C47.7171 12.2952 48.7632 13.3261 50.3166 13.3261C51.7115 13.3261 52.6943 12.4513 52.6943 11.0455V10.8268C52.6955 10.7649 52.6841 10.7034 52.6606 10.6459C52.6372 10.5885 52.6023 10.5364 52.5579 10.4926C52.5135 10.4488 52.4606 10.4143 52.4023 10.3913C52.344 10.3682 52.2815 10.3569 52.2187 10.3582Z" fill="white"/>
<path d="M43.9762 8.14003C43.9436 8.04937 43.8837 7.97075 43.8044 7.91488C43.7249 7.85901 43.6301 7.82853 43.5324 7.82764H42.7082C42.6105 7.82853 42.5158 7.85901 42.4362 7.91488C42.357 7.97075 42.297 8.04937 42.2644 8.14003L40.6793 12.6389C40.6555 12.7092 40.6489 12.784 40.6596 12.8574C40.6704 12.9308 40.6986 13.0006 40.7417 13.0613C40.7849 13.1221 40.8419 13.172 40.9082 13.2072C40.9741 13.2423 41.048 13.2616 41.1231 13.2637H41.3767C41.4744 13.2628 41.5692 13.2323 41.6487 13.1764C41.728 13.1206 41.7879 13.0419 41.8205 12.9513L42.0108 12.3577C42.0434 12.267 42.1034 12.1884 42.1826 12.1325C42.2622 12.0767 42.357 12.0462 42.4546 12.0453H43.7543C43.852 12.0462 43.9468 12.0767 44.0263 12.1325C44.1056 12.1884 44.1655 12.267 44.1981 12.3577L44.3884 12.9513C44.421 13.0419 44.481 13.1206 44.5602 13.1764C44.6398 13.2323 44.7346 13.2628 44.8322 13.2637H45.0858C45.1609 13.2616 45.2348 13.2423 45.3007 13.2072C45.367 13.172 45.424 13.1221 45.4671 13.0613C45.5102 13.0006 45.5385 12.9308 45.5493 12.8574C45.5601 12.784 45.5534 12.7092 45.5296 12.6389L43.9762 8.14003ZM43.171 11.1081H43.0759C43.0008 11.106 42.927 11.0866 42.8607 11.0515C42.7947 11.0163 42.7377 10.9664 42.6946 10.9057C42.6514 10.8449 42.6232 10.7751 42.6125 10.7017C42.6017 10.6284 42.6083 10.5535 42.6321 10.4832L43.1076 9.04602C43.1076 9.03776 43.1111 9.02979 43.1168 9.02392C43.1228 9.01812 43.1308 9.01482 43.1393 9.01482C43.1479 9.01482 43.1558 9.01812 43.1619 9.02392C43.1675 9.02979 43.171 9.03776 43.171 9.04602L43.6465 10.4832C43.6637 10.5557 43.6646 10.631 43.6491 10.7039C43.6339 10.7768 43.6022 10.8455 43.5568 10.9051C43.5115 10.9646 43.4535 11.0137 43.3869 11.0488C43.32 11.0838 43.2465 11.104 43.171 11.1081Z" fill="white"/>
<path d="M55.896 7.82764H55.6741C55.5489 7.83075 55.43 7.88117 55.3416 7.96842C55.2528 8.0556 55.2018 8.17297 55.1986 8.29626V12.7951C55.2018 12.9184 55.2528 13.0358 55.3416 13.123C55.43 13.2102 55.5489 13.2606 55.6741 13.2637H55.896C56.0212 13.2606 56.1401 13.2102 56.2286 13.123C56.3173 13.0358 56.3683 12.9184 56.3715 12.7951V8.29626C56.3633 8.17458 56.3107 8.06003 56.2232 7.97386C56.1356 7.88764 56.0193 7.83572 55.896 7.82764Z" fill="white"/>
<path d="M61.4441 8.76485C61.6573 8.75904 61.8692 8.80778 62.0579 8.90634C62.2465 9.00484 62.4064 9.14987 62.5219 9.32718C62.5627 9.43598 62.6363 9.52999 62.7321 9.59694C62.8285 9.66383 62.9429 9.70053 63.0609 9.70209H63.2824C63.3465 9.70724 63.4112 9.69688 63.4704 9.67197C63.5297 9.64706 63.5812 9.60832 63.6219 9.55916C63.6627 9.50987 63.6908 9.45167 63.7034 9.38952C63.7159 9.3273 63.713 9.26305 63.6944 9.20221C63.3776 8.26496 62.5219 7.73389 61.4124 7.73389C59.9537 7.73389 58.8441 8.73359 58.8441 10.5144C58.8441 12.2951 59.9219 13.2949 61.4124 13.2949C62.5848 13.2949 63.3776 12.6701 63.6627 11.889C63.6812 11.8282 63.6842 11.7639 63.6716 11.7017C63.6591 11.6396 63.6309 11.5814 63.5902 11.5322C63.5495 11.4829 63.498 11.4442 63.4387 11.4193C63.3794 11.3944 63.3147 11.384 63.2507 11.3892H62.9974C62.8818 11.3992 62.771 11.4392 62.6764 11.505C62.5818 11.5708 62.5064 11.6602 62.4585 11.7641C62.3525 11.943 62.1992 12.0899 62.0147 12.189C61.8303 12.2882 61.6219 12.3357 61.4124 12.3264C60.5878 12.3264 60.0171 11.7016 60.0171 10.5456C60.0171 9.38969 60.5878 8.76485 61.4441 8.76485Z" fill="white"/>
<path d="M77.865 7.82764H76.3752C76.2501 7.83075 76.1309 7.88117 76.0429 7.96842C75.9536 8.0556 75.9027 8.17297 75.8997 8.29626V12.7951C75.9027 12.9184 75.9536 13.0358 76.0429 13.123C76.1309 13.2102 76.2501 13.2606 76.3752 13.2637H77.865C79.5453 13.2637 80.5596 12.2327 80.5596 10.5457C80.5596 8.85859 79.5135 7.82764 77.865 7.82764ZM77.8015 12.264H77.5483C77.4231 12.2608 77.3039 12.2104 77.2153 12.1232C77.1267 12.036 77.0758 11.9187 77.0728 11.7954V9.26476C77.0758 9.14147 77.1267 9.0241 77.2153 8.93686C77.3039 8.84967 77.4231 8.79931 77.5483 8.79614H77.8015C78.8477 8.79614 79.3866 9.32722 79.3866 10.5144C79.3866 11.7016 78.8477 12.264 77.8015 12.264Z" fill="white"/>
<path d="M86.2666 12.2952H84.6498C84.5241 12.2921 84.4055 12.2417 84.3169 12.1545C84.2283 12.0673 84.1774 11.9499 84.1738 11.8266V11.4517C84.1774 11.3284 84.2283 11.2111 84.3169 11.1238C84.4055 11.0366 84.5241 10.9862 84.6498 10.9831H86.0444C86.1708 10.9831 86.2911 10.9337 86.381 10.8458C86.4696 10.7579 86.5199 10.6387 86.5199 10.5144C86.5199 10.3902 86.4696 10.2709 86.381 10.1831C86.2911 10.0952 86.1708 10.0458 86.0444 10.0458H84.6498C84.5241 10.0427 84.4055 9.99225 84.3169 9.90507C84.2283 9.81782 84.1774 9.70046 84.1738 9.57717V9.20232C84.1774 9.07902 84.2283 8.9616 84.3169 8.87441C84.4055 8.78716 84.5241 8.73681 84.6498 8.73363H86.2348C86.3606 8.73363 86.4816 8.68429 86.5708 8.59639C86.66 8.50848 86.7103 8.38932 86.7103 8.26507C86.7103 8.14076 86.66 8.02154 86.5708 7.93369C86.4816 7.84579 86.3606 7.79639 86.2348 7.79639H83.4768C83.3516 7.79956 83.2324 7.84992 83.1438 7.93717C83.0552 8.02435 83.0043 8.14172 83.0013 8.26507V12.7639C83.0043 12.8872 83.0552 13.0045 83.1438 13.0917C83.2324 13.179 83.3516 13.2293 83.4768 13.2325H86.2666C86.3917 13.2293 86.5103 13.179 86.5989 13.0917C86.6875 13.0045 86.7384 12.8872 86.742 12.7639C86.7432 12.702 86.7318 12.6405 86.7085 12.583C86.6845 12.5255 86.6498 12.4734 86.6055 12.4296C86.5612 12.3858 86.5079 12.3514 86.4498 12.3283C86.3917 12.3052 86.3288 12.2939 86.2666 12.2952Z" fill="white"/>
<path d="M93.4303 7.82764H93.2087C93.0836 7.83075 92.9644 7.88117 92.8758 7.96842C92.7871 8.0556 92.7362 8.17297 92.7332 8.29626V11.2017C92.7332 11.233 92.7333 11.233 92.7015 11.233H92.6698L90.4506 8.04632C90.4075 7.9868 90.3506 7.93853 90.2841 7.9059C90.2177 7.87321 90.144 7.85704 90.0704 7.85889H89.7722C89.647 7.86201 89.5279 7.91243 89.4398 7.99961C89.3506 8.08686 89.2997 8.20416 89.2967 8.32752V12.8263C89.2997 12.9496 89.3506 13.067 89.4398 13.1542C89.5279 13.2414 89.647 13.2918 89.7722 13.2949H89.9937C90.1195 13.2918 90.238 13.2414 90.3267 13.1542C90.4153 13.067 90.4662 12.9496 90.4698 12.8263V9.88961C90.4698 9.88129 90.4728 9.87338 90.4788 9.86752C90.4847 9.86165 90.4925 9.85836 90.5015 9.85836H90.5326L92.7835 13.045C92.8267 13.1045 92.8841 13.1528 92.95 13.1854C93.0165 13.2181 93.0901 13.2343 93.1644 13.2325H93.4494C93.5746 13.2293 93.6937 13.1789 93.7818 13.0917C93.871 13.0045 93.9219 12.8872 93.9249 12.7639V8.265C93.9033 8.14836 93.8434 8.04207 93.7536 7.96291C93.6638 7.88368 93.5506 7.83608 93.4303 7.82764Z" fill="white"/>
<path d="M18.5614 6.8372L20.0292 8.56175C20.1972 8.75546 20.3462 8.9148 20.4064 9.0054C20.8454 9.44163 21.0915 10.0312 21.0912 10.6456C21.05 11.3704 20.5776 11.864 20.1402 12.392L19.113 13.598L18.5773 14.2228C18.5581 14.2443 18.5457 14.2709 18.5416 14.2994C18.5376 14.3278 18.5421 14.3567 18.5546 14.3826C18.567 14.4086 18.5869 14.4303 18.6118 14.4452C18.6367 14.4601 18.6654 14.4675 18.6945 14.4665H24.0489C24.8668 14.4665 25.8971 15.1538 25.8369 16.1973C25.8352 16.6715 25.6433 17.1259 25.303 17.4613C24.9627 17.7967 24.5017 17.9858 24.0204 17.9874H15.6354C15.0838 17.9874 13.6002 18.0468 13.1849 16.7815C13.0966 16.5171 13.0845 16.2337 13.15 15.9629C13.2707 15.5626 13.4617 15.1861 13.7143 14.8507C14.1359 14.2259 14.5924 13.601 15.0426 12.995C15.6227 12.2014 16.2187 11.4329 16.8052 10.6237C16.826 10.5974 16.8373 10.5649 16.8373 10.5316C16.8373 10.4982 16.826 10.4658 16.8052 10.4394L14.6748 7.94001C14.6609 7.92193 14.643 7.9072 14.6223 7.89708C14.6017 7.88702 14.579 7.88175 14.556 7.88175C14.5329 7.88175 14.5102 7.88702 14.4896 7.89708C14.469 7.9072 14.4509 7.92193 14.437 7.94001C13.8664 8.69923 11.3684 12.0609 10.8358 12.7419C10.3032 13.423 8.99082 13.4605 8.26483 12.7419L4.93303 9.44588C4.91178 9.42486 4.88459 9.41049 4.85501 9.40468C4.82549 9.39887 4.79483 9.40187 4.76698 9.41325C4.73908 9.42462 4.71531 9.44391 4.6986 9.46858C4.6819 9.49331 4.67303 9.52241 4.67309 9.55211V15.8911C4.68088 16.3409 4.54579 16.7819 4.28651 17.1522C4.02728 17.5225 3.65698 17.8037 3.22746 17.9562C2.95306 18.0503 2.65979 18.0784 2.37206 18.0382C2.08437 17.9979 1.81063 17.8904 1.57364 17.7247C1.33664 17.5591 1.14326 17.3399 1.00964 17.0856C0.876051 16.8313 0.80605 16.5492 0.805511 16.2629V4.86583C0.824625 4.4551 0.974577 4.06077 1.23408 3.73885C1.49359 3.41692 1.84943 3.18379 2.25109 3.07255C2.59562 2.9821 2.95828 2.983 3.30231 3.07518C3.64639 3.16734 3.95962 3.34752 4.21022 3.59743L9.33315 8.65235C9.34848 8.66768 9.36704 8.67953 9.38758 8.68702C9.40806 8.6945 9.42998 8.6975 9.45178 8.6957C9.47351 8.6939 9.49465 8.68744 9.51363 8.67672C9.53255 8.66594 9.54884 8.65127 9.56142 8.63361L13.2007 3.66926C13.3689 3.46774 13.5797 3.30489 13.8185 3.19209C14.0573 3.0793 14.3182 3.01932 14.5829 3.01631H24.0489C24.3079 3.01676 24.564 3.07166 24.7997 3.17741C25.0355 3.2832 25.2457 3.43737 25.4161 3.62961C25.5866 3.82184 25.7134 4.04774 25.7882 4.29219C25.8629 4.53664 25.8839 4.79399 25.8496 5.04703C25.7829 5.486 25.5569 5.88624 25.2135 6.17349C24.8701 6.46073 24.4327 6.61552 23.9823 6.60917H18.6819C18.6552 6.60977 18.6293 6.61744 18.6066 6.63133C18.5841 6.64522 18.5656 6.66486 18.5533 6.6881C18.5411 6.71139 18.5353 6.73756 18.5367 6.76373C18.5381 6.78995 18.5467 6.81534 18.5614 6.8372Z" fill="white"/>
<path d="M127.201 13.2923C127.201 14.4505 127.455 15.3398 127.788 15.8777C128.223 16.5824 128.873 16.8809 129.535 16.8809C130.39 16.8809 131.171 16.6688 132.678 14.5856C133.885 12.9157 135.307 10.5718 136.263 9.10238L137.884 6.61296C139.009 4.88406 140.312 2.96212 141.805 1.65938C143.025 0.596088 144.34 0.00537109 145.664 0.00537109C147.887 0.00537109 150.004 1.29335 151.624 3.70896C153.397 6.35453 154.258 9.68677 154.258 13.1256C154.258 15.1699 153.855 16.672 153.169 17.8587C152.507 19.0064 151.216 20.153 149.044 20.153V16.8809C150.904 16.8809 151.368 15.172 151.368 13.2163C151.368 10.4294 150.718 7.33659 149.286 5.12668C148.271 3.55916 146.954 2.60136 145.506 2.60136C143.939 2.60136 142.679 3.7828 141.262 5.88933C140.509 7.00853 139.736 8.37245 138.868 9.91144L137.912 11.6045C135.992 15.0085 135.506 15.7839 134.546 17.0634C132.863 19.3039 131.427 20.153 129.535 20.153C127.292 20.153 125.873 19.1815 124.994 17.7174C124.277 16.5243 123.925 14.9589 123.925 13.1752L127.201 13.2923Z" fill="white"/>
<path d="M126.508 3.93997C128.01 1.62456 130.177 0.00537109 132.664 0.00537109C134.104 0.00537109 135.535 0.431527 137.03 1.65199C138.665 2.98638 140.407 5.18364 142.582 8.8049L143.361 10.1045C145.243 13.2396 146.314 14.8524 146.94 15.6129C147.746 16.5898 148.31 16.8809 149.043 16.8809C150.903 16.8809 151.367 15.172 151.367 13.2163L154.258 13.1256C154.258 15.1699 153.855 16.672 153.169 17.8587C152.507 19.0064 151.215 20.153 149.043 20.153C147.693 20.153 146.497 19.8598 145.174 18.6119C144.157 17.6541 142.969 15.9527 142.054 14.4231L139.334 9.87883C137.969 7.59819 136.716 5.89777 135.992 5.12773C135.212 4.29967 134.21 3.29968 132.611 3.29968C131.317 3.29968 130.218 4.2079 129.298 5.59713L126.508 3.93997Z" fill="white"/>
<path d="M132.611 3.29968C131.317 3.29968 130.218 4.2079 129.298 5.59713C127.997 7.56022 127.201 10.4842 127.201 13.2923C127.201 14.4505 127.455 15.3398 127.788 15.8777L124.994 17.7174C124.277 16.5243 123.925 14.9589 123.925 13.1752C123.925 9.93154 124.815 6.55072 126.508 3.93997C128.01 1.62456 130.178 0.00537109 132.664 0.00537109L132.611 3.29968Z" fill="white"/>
<path d="M160.627 0.642456H164.417L170.861 12.3006L177.306 0.642456H181.014V19.7986H177.922V5.11714L172.27 15.2838H169.369L163.719 5.11714V19.7986H160.627V0.642456ZM190.702 7.78486C188.484 7.78486 187.149 9.45363 186.829 11.5201H194.355C194.2 9.39139 192.972 7.78486 190.702 7.78486ZM183.764 12.6973C183.764 8.3492 186.574 5.18465 190.755 5.18465C194.868 5.18465 197.324 8.30912 197.324 12.9293V13.7785H186.829C187.202 16.0264 188.693 17.5412 191.098 17.5412C193.017 17.5412 194.216 16.9557 195.354 15.885L196.996 17.8966C195.448 19.3196 193.48 20.1404 190.989 20.1404C186.462 20.1404 183.764 16.8397 183.764 12.6973ZM201.073 8.05912H198.227V5.52748H201.073V1.34077H204.056V5.52748H208.38V8.05912H204.056V14.4758C204.056 16.6667 204.757 17.4452 206.478 17.4452C207.264 17.4452 207.714 17.3777 208.38 17.2669V19.7711C207.551 20.0053 206.76 20.1129 205.903 20.1129C202.683 20.1129 201.073 18.3534 201.073 14.8313V8.05912ZM220.941 10.5211C220.342 9.00849 219.006 7.89456 217.041 7.89456C214.489 7.89456 212.855 9.70578 212.855 12.6562C212.855 15.5327 214.359 17.4315 216.919 17.4315C218.932 17.4315 220.368 16.2606 220.941 14.8038V10.5211ZM223.924 19.7986H220.995V17.8006C220.178 18.9768 218.688 20.1404 216.275 20.1404C212.396 20.1404 209.803 16.8924 209.803 12.6562C209.803 8.37979 212.458 5.18465 216.44 5.18465C218.409 5.18465 219.952 5.97157 220.995 7.36081V5.52748H223.924V19.7986Z" fill="white"/>
<path d="M253.925 18.5204L254.729 15.1035H262.912L263.371 14.7303L263.572 13.9263L263.314 13.6104H257.657L255.446 10.7392L256.193 7.49463L258.978 5.22632H269.085L268.281 8.64314H260.5L260.012 9.01641L259.84 9.82035L260.098 10.1362H265.754L267.965 13.0075L267.219 16.2521L264.405 18.5204H253.925Z" fill="white"/>
<path d="M271.899 18.5204L274.167 8.64314H269.315L270.119 5.22632H283.987L283.212 8.64314H278.359L276.062 18.5204H271.899Z" fill="white"/>
<path d="M282.063 18.5204L285.136 5.22632H297.31L296.506 8.64314H288.524L288.15 10.251H294.037L293.319 13.2946H287.433L287.031 15.1035H295.214L294.41 18.5204H282.063Z" fill="white"/>
<path d="M308.766 5.22632H298.516L295.444 18.5204H299.636L300.382 15.1897H306.871L309.771 12.8352L310.891 7.98273L308.766 5.22632ZM305.981 11.1986L305.292 11.7728H301.215L301.933 8.64314H306.067L306.469 9.15994L305.981 11.1986Z" fill="white"/>
<path d="M314.308 18.5204L317.38 5.22632H323.295L325.334 13.9837H325.908L327.946 5.22632H331.851L328.751 18.5204H322.836L320.797 9.76294H320.194L318.184 18.5204H314.308Z" fill="white"/>
<path fill-rule="evenodd" clip-rule="evenodd" d="M314.738 1.00537L311.293 7.40832L313.676 7.37961L313.475 11.4568L316.547 5.22615H314.25L314.738 1.00537Z" fill="white"/>
<path fill-rule="evenodd" clip-rule="evenodd" d="M336.388 10.3946C336.388 10.1936 336.216 10.05 336.044 10.05H333.287C333.086 10.05 332.942 10.2223 332.942 10.3946C332.942 10.5956 333.114 10.7392 333.287 10.7392H336.044C336.244 10.7392 336.388 10.5669 336.388 10.3946Z" fill="white"/>
<path fill-rule="evenodd" clip-rule="evenodd" d="M338.714 13.4095C338.714 13.2085 338.541 13.0649 338.369 13.0649H335.613C335.411 13.0649 335.268 13.2372 335.268 13.4095C335.268 13.6105 335.44 13.7541 335.613 13.7541H338.369C338.541 13.7541 338.714 13.6105 338.714 13.4095Z" fill="white"/>
<path fill-rule="evenodd" clip-rule="evenodd" d="M337.91 11.9163C337.91 12.1173 337.738 12.2609 337.566 12.2609H334.522C334.321 12.2609 334.177 12.0886 334.177 11.9163C334.177 11.7153 334.349 11.5717 334.522 11.5717H337.566C337.766 11.543 337.91 11.7153 337.91 11.9163Z" fill="white"/>
<path fill-rule="evenodd" clip-rule="evenodd" d="M333.459 11.543C333.258 11.543 333.114 11.7153 333.114 11.8875C333.114 12.0885 333.287 12.2321 333.459 12.2321H333.603C333.803 12.2321 333.947 12.0598 333.947 11.8875C333.947 11.6866 333.775 11.543 333.603 11.543H333.459Z" fill="white"/>
<path fill-rule="evenodd" clip-rule="evenodd" d="M339.89 14.9311C339.89 14.7302 339.718 14.5865 339.546 14.5865H333.631C333.431 14.5865 333.287 14.7589 333.287 14.9311C333.287 15.1321 333.459 15.2757 333.631 15.2757H339.546C339.747 15.2757 339.89 15.1321 339.89 14.9311Z" fill="white"/>
<path fill-rule="evenodd" clip-rule="evenodd" d="M350.802 14.5291C349.711 14.0984 349.194 13.8401 348.735 14.2421C348.964 13.7826 348.878 13.7539 348.677 13.4381C348.304 12.7777 347.299 11.6866 346.955 9.59055C346.955 9.59055 347.5 8.09749 347.557 7.14998C347.557 7.14998 347.758 6.547 346.84 6.83413C346.84 6.83413 345.662 7.55196 345.031 7.72423C343.882 7.58066 342.188 6.748 341.557 5.48464C341.557 5.48464 342.073 4.39355 341.614 4.13513C341.298 3.96285 340.351 4.93909 340.351 4.93909L337.278 8.49947L337.049 8.93015C336.962 9.10246 336.962 9.33212 337.106 9.53314C337.91 10.6242 341.097 14.845 342.935 17.1133C337.738 17.1421 334.924 17.946 336.934 18.2331C338.57 18.4628 342.246 18.4054 345.031 18.3767C345.375 18.4915 345.72 18.5776 346.093 18.6064L350.802 18.6351C351.405 18.6064 351.951 18.5489 352.41 18.5202C352.697 18.4915 352.955 18.2906 353.042 18.0321C353.558 16.7113 352.755 15.3044 350.802 14.5291ZM342.446 14.041L342.561 11.945H341.327L343.078 8.64307L342.82 10.7965H343.997L342.446 14.041Z" fill="white"/>
</svg>
