<svg width="490" height="34" viewBox="0 0 490 34" fill="none" xmlns="http://www.w3.org/2000/svg">
<path d="M24.8165 10.2809L24.2624 9.31324C24.0761 8.98899 23.6344 8.93026 23.3688 9.19324L22.105 10.4571C21.9135 10.6486 21.8854 10.9473 22.0335 11.1719C22.4956 11.8792 22.8659 12.64 23.1339 13.4392H23.1365C23.4786 14.4528 23.6573 15.5277 23.6573 16.6102C23.6573 22.0843 19.202 26.5396 13.728 26.5396C12.0812 26.5396 10.4982 26.1439 9.07351 25.3856L11.2156 23.2434C12.0148 23.5473 12.8676 23.703 13.728 23.703C17.6395 23.703 20.8207 20.5217 20.8207 16.6102C20.8207 16.3651 20.8054 16.12 20.7799 15.8775C20.6956 15.0553 20.4684 14.2587 20.111 13.5209C19.9399 13.1685 19.4752 13.0894 19.1969 13.3651L17.9127 14.6494C17.7748 14.7873 17.7161 14.989 17.762 15.1804L17.8693 15.64C17.9433 15.9617 17.9816 16.2885 17.9816 16.6128C17.9816 18.9592 16.0718 20.869 13.7254 20.869C12.9876 20.869 12.2573 20.6749 11.619 20.3098L11.0548 19.9856C10.8327 19.8579 10.5518 19.8962 10.3705 20.0775L5.13907 25.309C4.89651 25.5515 4.92204 25.9524 5.19524 26.1592L5.9663 26.749C8.21053 28.4698 10.8939 29.3787 13.7254 29.3787C20.7646 29.3787 26.4914 23.6519 26.4914 16.6128C26.4914 14.3915 25.9118 12.2009 24.8114 10.2809H24.8165Z" fill="white"/>
<path d="M21.4898 6.47671C19.2455 4.75586 16.5621 3.84692 13.7307 3.84692C6.69153 3.84692 0.964722 9.57373 0.964722 16.6129C0.964722 18.8367 1.5443 21.0248 2.64472 22.9448L3.19877 23.9125C3.38515 24.2367 3.82685 24.2954 4.09238 24.0325L5.35621 22.7686C5.5477 22.5771 5.57579 22.2784 5.4277 22.0537C4.96557 21.3465 4.59536 20.5857 4.32728 19.7865H4.32472C3.9826 18.7729 3.80387 17.698 3.80387 16.6154C3.80132 11.1389 8.25661 6.68352 13.7307 6.68352C15.3775 6.68352 16.9604 7.07926 18.3851 7.83756L16.243 9.97969C15.4438 9.67586 14.5911 9.52011 13.7307 9.52011C9.81916 9.52011 6.63791 12.7014 6.63791 16.6129C6.63791 16.7303 6.66855 17.2691 6.67877 17.361C6.76557 18.1754 6.99281 18.9695 7.3477 19.7023C7.51877 20.0546 7.98345 20.1337 8.26172 19.858L9.54342 18.5763C9.68129 18.4384 9.74001 18.2367 9.69406 18.0452L9.58682 17.5857C9.51278 17.264 9.47448 16.9371 9.47448 16.6129C9.47448 14.2665 11.3843 12.3567 13.7307 12.3567C14.4685 12.3567 15.1987 12.5508 15.837 12.9159L16.4013 13.2401C16.6234 13.3678 16.9043 13.3295 17.0855 13.1482L22.317 7.91671C22.5596 7.67416 22.5341 7.2733 22.2609 7.0665L21.4898 6.47671Z" fill="white"/>
<path d="M42.9928 20.1336C42.8013 19.9728 42.5384 19.9804 42.3213 20.149C41.4992 20.7847 40.5494 21.3745 39.1579 21.3745C36.6124 21.3745 34.5418 19.2298 34.5418 16.5924C34.5418 13.9549 36.6047 11.7924 39.1401 11.7924C40.243 11.7924 41.4303 12.2545 42.306 13.023C42.4643 13.1813 42.6098 13.2068 42.7043 13.2017C42.7911 13.1966 42.9162 13.1583 43.0311 13.0153L43.8584 12.1626C43.9656 12.0528 44.0243 11.9124 44.0192 11.7668C44.0141 11.6213 43.9477 11.4834 43.8303 11.3762C42.3877 10.1175 40.935 9.55579 39.1196 9.55579C35.2439 9.55579 32.0907 12.7294 32.0907 16.6281C32.0907 20.5268 35.2439 23.6621 39.1196 23.6621C40.9426 23.6621 42.5818 23.0034 43.8584 21.7575C43.9681 21.6477 44.0294 21.4894 44.0243 21.3336C44.0192 21.1983 43.9656 21.0783 43.8762 20.9992L42.9928 20.1285V20.1336Z" fill="white"/>
<path d="M49.0184 9.74988H47.7648C47.4814 9.74988 47.2338 10.0001 47.2338 10.2835V22.9422C47.2338 23.2256 47.4814 23.4758 47.7648 23.4758H49.0184C49.3018 23.4758 49.5495 23.2256 49.5495 22.9422V10.2835C49.5495 10.0001 49.3018 9.74988 49.0184 9.74988Z" fill="white"/>
<path d="M63.8571 14.0137C63.8571 11.6622 61.9218 9.74988 59.5448 9.74988H54.3771C54.0835 9.74988 53.8461 9.98988 53.8461 10.2835V22.9422C53.8461 23.2358 54.0861 23.4758 54.3771 23.4758H55.6129C55.8963 23.4758 56.1439 23.2256 56.1439 22.9422V18.2367H58.7354L61.2146 23.2078C61.2784 23.3354 61.4495 23.4733 61.6716 23.4733H63.1525C63.3567 23.4733 63.5278 23.3814 63.6222 23.2205C63.7193 23.0571 63.7218 22.8452 63.6248 22.6665L61.1099 17.9737C62.8078 17.218 63.8546 15.7141 63.8546 14.0086L63.8571 14.0137ZM61.5388 14.052C61.5388 15.2443 60.5559 16.2529 59.3916 16.2529H56.1797V11.9456H59.3916C60.5559 11.9456 61.5388 12.9082 61.5388 14.0495V14.052Z" fill="white"/>
<path d="M77.3589 20.1336C77.1674 19.9728 76.9043 19.9804 76.6873 20.149C75.8653 20.7847 74.9149 21.3745 73.5234 21.3745C70.9781 21.3745 68.9075 19.2298 68.9075 16.5924C68.9075 13.9549 70.9705 11.7924 73.5057 11.7924C74.6086 11.7924 75.7958 12.2545 76.6717 13.023C76.8298 13.1813 76.9759 13.2068 77.0703 13.2017C77.1568 13.1966 77.2823 13.1583 77.3972 13.0153L78.2242 12.1626C78.3312 12.0528 78.3901 11.9124 78.3851 11.7668C78.3802 11.6213 78.3135 11.4834 78.1958 11.3762C76.7532 10.1175 75.3007 9.55579 73.4851 9.55579C69.6096 9.55579 66.4564 12.7294 66.4564 16.6281C66.4564 20.5268 69.6096 23.6621 73.4851 23.6621C75.3085 23.6621 76.9476 23.0034 78.2242 21.7575C78.3341 21.6477 78.3951 21.4894 78.3901 21.3336C78.3851 21.1983 78.3312 21.0783 78.2419 20.9992L77.3589 20.1285V20.1336Z" fill="white"/>
<path d="M88.8966 21.3567H83.9207V10.2835C83.9207 10.0001 83.6725 9.74988 83.3895 9.74988H82.1356C81.842 9.74988 81.6044 9.98988 81.6044 10.2835V22.9422C81.6044 23.2358 81.8448 23.4758 82.1356 23.4758H88.8994C89.193 23.4758 89.4327 23.2358 89.4327 22.9422V21.8903C89.4327 21.5967 89.193 21.3567 88.8994 21.3567H88.8966Z" fill="white"/>
<path d="M100.161 11.8895C100.455 11.8895 100.692 11.6495 100.692 11.3559V10.2861C100.692 9.99244 100.453 9.75244 100.161 9.75244H92.5604C92.2668 9.75244 92.0292 9.99244 92.0292 10.2861V22.9448C92.0292 23.2384 92.2696 23.4784 92.5604 23.4784H100.161C100.455 23.4784 100.692 23.2384 100.692 22.9448V21.8929C100.692 21.5993 100.453 21.3593 100.161 21.3593H94.3299V17.5908H99.232C99.5256 17.5908 99.7632 17.3508 99.7632 17.0571V15.9874C99.7632 15.704 99.515 15.4537 99.232 15.4537H94.3299V11.8946H100.161V11.8895Z" fill="white"/>
<path d="M173.117 17.7699C173.117 22.3967 169.444 25.8061 164.936 25.8061C160.429 25.8061 156.756 22.3967 156.756 17.7699C156.756 13.1105 160.429 9.73364 164.936 9.73364C169.444 9.73364 173.117 13.1105 173.117 17.7699ZM169.536 17.7699C169.536 14.8785 167.407 12.9003 164.936 12.9003C162.466 12.9003 160.337 14.8785 160.337 17.7699C160.337 20.6322 162.466 22.6395 164.936 22.6395C167.407 22.6395 169.536 20.6285 169.536 17.7699Z" fill="white"/>
<path d="M190.762 17.7699C190.762 22.3967 187.089 25.8061 182.582 25.8061C178.075 25.8061 174.402 22.3967 174.402 17.7699C174.402 13.114 178.075 9.73364 182.582 9.73364C187.089 9.73364 190.762 13.1105 190.762 17.7699ZM187.181 17.7699C187.181 14.8785 185.052 12.9003 182.582 12.9003C180.111 12.9003 177.983 14.8785 177.983 17.7699C177.983 20.6322 180.111 22.6395 182.582 22.6395C185.052 22.6395 187.181 20.6285 187.181 17.7699Z" fill="white"/>
<path d="M207.673 10.2192V24.6467C207.673 30.5814 204.121 33.0054 199.923 33.0054C195.971 33.0054 193.592 30.4003 192.695 28.2699L195.812 26.9909C196.368 28.2988 197.728 29.8424 199.919 29.8424C202.607 29.8424 204.272 28.2083 204.272 25.1322V23.9764H204.147C203.346 24.951 201.801 25.8025 199.853 25.8025C195.776 25.8025 192.04 22.3025 192.04 17.7988C192.04 13.2626 195.776 9.73364 199.853 9.73364C201.798 9.73364 203.342 10.5851 204.147 11.5307H204.272V10.2228H207.673V10.2192ZM204.526 17.7988C204.526 14.9692 202.61 12.9003 200.173 12.9003C197.702 12.9003 195.632 14.9692 195.632 17.7988C195.632 20.5996 197.702 22.6395 200.173 22.6395C202.61 22.6395 204.526 20.5996 204.526 17.7988Z" fill="white"/>
<path d="M213.28 1.76245V25.3132H209.787V1.76245H213.28Z" fill="white"/>
<path d="M226.891 20.4144L229.671 22.2404C228.774 23.5485 226.612 25.8021 222.876 25.8021C218.244 25.8021 214.785 22.273 214.785 17.7659C214.785 12.9869 218.274 9.72961 222.476 9.72961C226.707 9.72961 228.777 13.0485 229.454 14.8419L229.825 15.755L218.924 20.2043C219.759 21.8166 221.057 22.639 222.876 22.639C224.7 22.639 225.965 21.755 226.891 20.4144ZM218.336 17.523L225.623 14.5412C225.222 13.5376 224.016 12.8384 222.597 12.8384C220.777 12.8384 218.244 14.4217 218.336 17.523Z" fill="white"/>
<path d="M143.534 15.6803V12.2708H155.192C155.306 12.8651 155.365 13.5679 155.365 14.3288C155.365 16.8868 154.656 20.0498 152.369 22.3034C150.144 24.586 147.303 25.8034 143.538 25.8034C136.56 25.8034 130.692 20.202 130.692 13.3252C130.692 6.44837 136.56 0.846924 143.538 0.846924C147.398 0.846924 150.148 2.33968 152.214 4.28533L149.773 6.69113C148.291 5.32157 146.284 4.25635 143.534 4.25635C138.439 4.25635 134.453 8.30344 134.453 13.3252C134.453 18.347 138.439 22.394 143.534 22.394C146.839 22.394 148.722 21.086 149.928 19.8977C150.906 18.9338 151.549 17.5571 151.803 15.6767L143.534 15.6803Z" fill="white"/>
<path d="M267.47 8.36036H268.616V25.7228C268.616 29.5671 265.61 32.1612 259.825 32.1612V28.5103C262.309 28.5103 263.55 27.4856 263.55 25.4022V8.36036H267.47ZM264.105 5.54062C263.842 5.28836 263.632 4.98691 263.489 4.65404C263.346 4.32114 263.272 3.96354 263.272 3.60229C263.272 3.24103 263.346 2.88343 263.489 2.55054C263.632 2.21764 263.842 1.91621 264.105 1.66395C264.363 1.40535 264.67 1.19985 265.01 1.05953C265.35 0.919212 265.714 0.846924 266.083 0.846924C266.452 0.846924 266.816 0.919212 267.156 1.05953C267.496 1.19985 267.803 1.40535 268.061 1.66395C268.324 1.91621 268.534 2.21764 268.677 2.55054C268.82 2.88343 268.894 3.24103 268.894 3.60229C268.894 3.96354 268.82 4.32114 268.677 4.65404C268.534 4.98691 268.324 5.28836 268.061 5.54062C267.803 5.79922 267.496 6.00473 267.156 6.14504C266.816 6.28536 266.452 6.35764 266.083 6.35764C265.714 6.35764 265.35 6.28536 265.01 6.14504C264.67 6.00473 264.363 5.79922 264.105 5.54062Z" fill="white"/>
<path d="M283.284 8.3595H288.351V24.7921H283.284V22.3899C282.517 23.2634 281.563 23.9606 280.49 24.4319C279.417 24.9032 278.251 25.137 277.076 25.1167C273.283 25.1167 270.766 22.8111 270.766 18.4867V8.36329H275.835V16.5968C275.835 19.4429 276.979 20.8889 279.3 20.8889C281.523 20.8889 283.286 19.1906 283.286 15.8263L283.284 8.3595Z" fill="white"/>
<path d="M319.962 14.6812V24.8026H314.898V16.4098C314.898 13.6547 313.819 12.2776 311.661 12.2789C309.57 12.2789 307.772 14.0076 307.772 17.3397V24.8026H302.705V16.4098C302.705 13.6547 301.627 12.2776 299.47 12.2789C297.379 12.2789 295.581 14.0076 295.581 17.3397V24.8026H290.515V8.36997H295.581V10.74C297.248 8.94681 299.209 8.04928 301.53 8.04928C304.471 8.04928 306.37 9.17072 307.249 11.4136C309.048 9.1644 311.205 8.03979 313.721 8.03979C317.61 8.03979 319.962 10.0891 319.962 14.6812Z" fill="white"/>
<path d="M338.796 10.2817C340.43 11.8187 341.247 13.9002 341.247 16.5606C341.247 19.2209 340.43 21.3045 338.796 22.8073C337.162 24.3443 335.102 25.1129 332.586 25.1129C330.363 25.1129 328.565 24.4082 327.192 22.999V31.8416H322.128V8.35949H327.192V10.1261C328.565 8.71813 330.363 8.0135 332.586 8.01224C335.102 8.00655 337.162 8.77506 338.796 10.2817ZM335.952 16.5606C335.952 13.6138 334.09 11.6593 331.573 11.6593C329.089 11.6593 327.192 13.517 327.192 16.5606C327.192 19.6043 329.089 21.462 331.573 21.462C334.09 21.462 335.952 19.5076 335.952 16.5606Z" fill="white"/>
<path d="M359.216 20.2499V24.1306H343.379V20.2499H359.216Z" fill="white"/>
<path d="M405.254 22.1466L394.244 22.8296C393.178 22.8395 392.396 22.3564 392.378 21.6834V21.6642L393.831 6.99186C393.82 6.91509 393.669 6.8509 393.489 6.84692C391.624 7.40679 389.561 8.07585 389.216 8.27571L389.601 24.4755C389.619 25.1769 390.51 25.9241 392.431 25.9088L405.356 26.1888C405.472 26.1884 405.585 26.1454 405.671 26.0677C405.686 26.0546 405.697 26.037 405.701 26.0173L405.611 22.2988C405.611 22.2624 405.479 22.1466 405.254 22.1466Z" fill="white"/>
<path d="M409.361 8.70246C409.361 8.62438 409.206 8.54033 408.959 8.53967L406.417 9.14719H406.399C406.253 9.14719 406.111 9.19219 406.047 9.25837C406.039 9.26527 406.032 9.27394 406.027 9.28377C406.022 9.2936 406.02 9.30435 406.019 9.31529L406.747 24.715C406.753 24.7585 406.919 24.8883 407.144 24.8883L409.16 24.8685C409.297 24.876 409.432 24.8324 409.538 24.746C409.553 24.7336 409.564 24.7164 409.568 24.697L409.361 8.70246Z" fill="white"/>
<path d="M422.352 15.1218H422.327L417.593 15.6069C416.577 15.6162 415.747 15.9007 415.256 16.4077C415.095 16.5716 414.969 16.767 414.887 16.9816C414.805 17.1962 414.767 17.4255 414.777 17.6551L414.797 18.5029C414.797 18.5882 414.948 18.7186 415.121 18.7193L416.893 18.7007C416.999 18.6986 417.102 18.6554 417.178 18.5803C417.205 18.5559 417.222 18.5226 417.227 18.4863L417.219 18.1356C417.209 17.7756 417.311 17.4837 417.519 17.2686C417.784 16.9973 418.208 16.857 418.789 16.8524L419.539 16.8458H419.562C420.555 16.8458 421.203 17.3355 421.223 18.0972L421.235 18.6551C421.236 18.806 421.207 18.9557 421.149 19.095C421.091 19.2343 421.005 19.3604 420.897 19.4657C420.59 19.7827 420.109 19.9753 419.612 19.9813L417.696 19.9972C416.671 20.0051 415.843 20.2831 415.361 20.7794C415.199 20.9465 415.072 21.1453 414.99 21.3633C414.908 21.5813 414.871 21.8139 414.882 22.0467L414.917 23.4464C414.941 24.4701 416.066 25.6964 417.432 25.6964H417.446L422.131 25.4318C422.499 25.4327 422.864 25.3609 423.205 25.2205C423.545 25.0799 423.855 24.8736 424.116 24.6131C424.497 24.22 424.701 23.7488 424.69 23.2895V23.2816L424.869 16.943C424.843 15.8994 423.764 15.1218 422.352 15.1218ZM422.608 23.4907C422.306 23.8031 421.837 23.9778 421.285 23.9831L420.176 23.995H420.162C419.164 23.995 418.456 23.4656 418.442 22.6992V22.5146C418.432 22.1268 418.544 21.7999 418.765 21.5715C419.011 21.3168 419.381 21.1851 419.867 21.1811L421.256 21.1765H421.274C422.403 21.1765 422.923 21.8257 422.936 22.4716L422.94 22.6569C422.945 22.8111 422.917 22.9646 422.86 23.108C422.803 23.2513 422.717 23.3816 422.608 23.4907Z" fill="white"/>
<path d="M446.635 14.1642C446.308 13.6857 445.726 13.1173 444.833 13.1232L440.051 13.1656C439.065 13.1735 438.377 13.6718 437.973 14.0888C437.359 14.7227 436.989 15.5976 437.006 16.3719L437.03 17.2871C437.03 17.3851 437.19 17.5346 437.395 17.5346L438.597 17.5254C438.716 17.5218 438.83 17.4728 438.915 17.3884C438.947 17.36 438.968 17.3202 438.972 17.2772L438.965 16.8941C438.956 16.5076 439.064 16.1945 439.286 15.9676C439.567 15.677 440.027 15.5261 440.653 15.5189L442.189 15.5076C443.271 15.497 443.976 16.0238 443.999 16.8504L444.012 17.4539C444.014 17.6164 443.983 17.7776 443.921 17.9277C443.859 18.0779 443.767 18.2139 443.651 18.3274C443.32 18.6696 442.801 18.8767 442.261 18.8807L440.187 18.8999C439.296 18.9058 438.683 19.0945 438.313 19.4756C437.971 19.829 437.82 20.3545 437.84 21.1301L437.876 22.6522C437.908 23.9757 438.589 24.6375 439.906 24.6264H439.914L445.009 25.0703C445.936 25.0603 446.762 24.746 447.285 24.21C447.632 23.8513 447.814 23.4245 447.802 22.9738L447.278 16.0966C447.245 15.4058 447.022 14.7374 446.635 14.1642ZM445.028 22.9063C444.826 23.1148 444.516 23.2174 444.081 23.22L442.88 23.2339H442.856C441.786 23.2339 441.027 22.6648 441.007 21.8442L441.002 21.6397C440.997 21.4749 441.026 21.3108 441.086 21.1573C441.146 21.0038 441.237 20.8642 441.353 20.7469C441.684 20.4081 442.199 20.2175 442.809 20.2129L444.041 20.2056H444.068C445.275 20.2056 445.297 20.9772 445.313 21.5953L445.318 21.7939C445.33 22.1883 445.3 22.6244 445.028 22.9063Z" fill="white"/>
<path d="M458.834 10.3708H458.822L453.749 10.4126C453.569 10.4112 453.391 10.4466 453.226 10.5168C453.061 10.5869 452.912 10.6902 452.788 10.8202C452.391 11.2318 452.181 11.9214 452.201 12.7625L452.283 16.1244C452.317 17.5459 452.966 18.4591 453.942 18.4519L458.549 18.4115C458.912 18.4115 459.276 18.2361 459.577 17.9277C459.986 17.5049 460.213 16.8921 460.198 16.2448V16.2309L460.451 12.5249C460.421 11.3145 459.713 10.3708 458.834 10.3708ZM457.49 15.0258C457.215 15.3117 456.777 15.5135 456.424 15.5169L455.125 15.5281H455.116C454.539 15.5281 454.169 15.047 454.151 14.2707L454.132 13.384C454.12 12.9598 454.226 12.6189 454.439 12.3992C454.518 12.318 454.613 12.2536 454.718 12.2102C454.822 12.1667 454.935 12.145 455.048 12.1464L456.815 12.1279H456.819C457.371 12.1279 457.784 12.6659 457.803 13.4091L457.817 14.235C457.819 14.3821 457.791 14.5281 457.735 14.664C457.678 14.7999 457.595 14.923 457.49 15.0258Z" fill="white"/>
<path d="M474.683 22.1056C474.675 22.0611 474.652 22.021 474.617 21.9924C474.521 21.9042 474.397 21.8519 474.266 21.8442H474.26L468.486 21.8945C467.977 21.8813 467.743 21.6185 467.692 21.377C467.631 21.0845 467.81 20.792 468.149 20.6318L473.922 17.8801C474.355 17.6611 474.568 17.2647 474.553 16.7055L474.475 13.433C474.467 13.1683 474.332 13.1683 474.26 13.1683H474.246L461.853 12.2001C461.696 12.2047 461.539 12.3377 461.54 12.4648V12.4754V12.486L461.087 16.0305C461.097 16.1582 461.264 16.2879 461.418 16.2859L471.063 16.2032C471.435 16.1986 471.719 16.37 471.783 16.6386C471.832 16.8418 471.746 17.1257 471.36 17.3137L471.35 17.3183L465.01 19.8814C464.567 20.0845 464.428 20.3446 464.441 20.9528L464.711 24.6184C464.711 24.7541 464.889 24.9076 465.042 24.9076L474.335 24.8269C474.461 24.8137 474.578 24.7571 474.666 24.6666C474.705 24.6325 474.729 24.5855 474.736 24.5344L474.683 22.1056Z" fill="white"/>
<path d="M402.019 12.0703H402.013L397.586 11.7189C396.378 11.7308 395.397 12.0359 394.894 12.5567C394.77 12.6793 394.672 12.8263 394.607 12.9884C394.541 13.1506 394.51 13.3244 394.516 13.4991V13.5103L393.761 19.6827C393.792 20.8177 394.381 21.3498 395.793 21.5179L402.263 20.8759C403.713 20.8064 405.162 20.1744 405.13 18.9197L405.189 13.7955C405.16 12.7347 403.92 12.0544 402.019 12.0703ZM402.984 18.0667C402.984 18.1939 402.958 18.3197 402.908 18.4369C402.859 18.554 402.786 18.6601 402.695 18.749C402.37 19.0852 401.825 19.2784 401.2 19.2857L400.358 19.2956H400.324C398.883 19.2956 398.567 18.751 398.558 18.291L398.488 15.354C398.483 15.2273 398.504 15.1008 398.549 14.9824C398.595 14.8639 398.664 14.756 398.752 14.6651C399.047 14.36 399.562 14.1959 400.239 14.1906L401.534 14.1781C402.593 14.1694 403.261 14.6036 403.277 15.309V15.319L402.984 18.0667Z" fill="white"/>
<path d="M413.777 12.2967C413.777 12.2159 413.613 12.1292 413.355 12.1306H413.349L410.966 11.9585C410.825 11.9585 410.683 12.0068 410.62 12.0716C410.612 12.078 410.606 12.086 410.601 12.0952C410.597 12.1044 410.595 12.1144 410.595 12.1246L410.566 25.9783C410.573 26.0201 410.736 26.1424 410.955 26.1424L413.511 26.1192C413.648 26.1272 413.783 26.0835 413.89 25.9969C413.905 25.9847 413.915 25.968 413.92 25.9492L413.777 12.2967Z" fill="white"/>
<path d="M450.862 10.0578L447.947 10.0803C447.846 10.0807 447.747 10.1074 447.659 10.1577C447.636 10.1694 447.615 10.1865 447.599 10.2077C447.584 10.2289 447.573 10.2535 447.569 10.2795L448.807 24.6322C448.807 24.6911 448.981 24.834 449.2 24.8307L451.215 24.8115C451.35 24.8181 451.483 24.7726 451.585 24.6845C451.608 24.6648 451.622 24.6378 451.626 24.6084L451.286 10.2557C451.281 10.1392 451.103 10.0552 450.862 10.0578Z" fill="white"/>
<path d="M460.14 19.1587L456.259 19.1925C454.914 19.2031 453.877 19.4836 453.413 19.9621C453.335 20.0367 453.273 20.1266 453.231 20.2262C453.189 20.3258 453.168 20.433 453.169 20.5412V20.5518L452.717 24.4219C452.757 25.4979 454.248 25.8672 455.636 25.8533L460.87 25.8109C461.925 25.8003 463.698 25.5853 463.74 24.271L463.291 20.4836C463.056 19.577 462.021 19.1435 460.14 19.1587ZM460.897 23.404C460.831 24.1876 460.006 24.1982 459.277 24.2061L457.556 24.2194H457.309C456.846 24.2194 456.499 24.1916 456.282 23.9778C456.15 23.8488 456.084 23.6681 456.084 23.4252V23.4067L456.088 23.3888L456.523 21.5199C456.526 21.3724 456.586 21.2317 456.691 21.1275C456.998 20.8099 457.637 20.7371 458.12 20.7305L459.277 20.7199H459.316C460.726 20.7199 460.847 21.3155 460.85 21.4975L460.896 23.3915L460.897 23.404Z" fill="white"/>
<path d="M433.233 11.9188H433.223L421.503 11.2312C421.492 11.2322 421.482 11.2353 421.472 11.2404C421.462 11.2455 421.454 11.2525 421.447 11.261C421.381 11.3272 421.341 11.4728 421.345 11.6296L421.398 13.9101C421.403 14.1523 421.481 14.3349 421.578 14.3429L425.149 13.92C425.36 13.92 425.563 14.0649 425.697 14.323L425.715 14.3581L425.521 27.4919C425.526 27.6049 425.688 27.6943 425.882 27.6903L427.99 27.6711C428.143 27.6711 428.266 27.6333 428.326 27.5718C428.339 27.5591 428.349 27.544 428.356 27.5272C428.362 27.5105 428.366 27.4926 428.365 27.4746L427.914 23.5952C427.913 23.5141 427.929 23.4337 427.96 23.3588C427.991 23.2839 428.037 23.2162 428.096 23.1598C428.294 22.9613 428.625 22.8368 428.987 22.8335H428.994L433.876 23.2544C434.747 23.2471 435.703 23.1717 436.196 22.6681C436.465 22.3928 436.593 22.0063 436.585 21.4802L436.41 14.0616C436.378 12.8036 435.042 11.9029 433.233 11.9188ZM434.107 20.8416C433.821 21.138 433.366 21.3048 432.827 21.3101L431.623 21.3194H431.593C430.593 21.3194 429.831 20.7853 429.816 20.0679L429.713 15.7664C429.711 15.6291 429.737 15.4929 429.789 15.366C429.841 15.239 429.919 15.124 430.017 15.0278C430.336 14.6969 430.864 14.505 431.465 14.4984L432.669 14.4865C433.644 14.4805 434.307 14.9762 434.323 15.7214L434.425 20.0183C434.431 20.17 434.406 20.3213 434.351 20.4628C434.296 20.6044 434.213 20.7333 434.107 20.8416Z" fill="white"/>
<path d="M489.028 24.2405L488.785 22.5238C488.766 22.3577 488.714 22.2287 488.646 22.1757C488.628 22.1599 488.604 22.1514 488.58 22.1519C487.786 22.3603 486.421 22.6628 486.14 22.3776C486.061 22.2948 485.932 22.1605 486.003 18.5935C486.036 16.9066 486.1 15.2297 486.104 15.1271C486.073 13.8419 484.875 12.8843 483.32 12.8982L478.367 13.1404C477.976 13.1436 477.59 13.2259 477.231 13.3826C476.873 13.5392 476.55 13.7668 476.282 14.0517C475.66 14.6956 475.301 15.587 475.322 16.4341L475.342 17.4559C475.346 17.5883 475.52 17.7497 475.707 17.7458L477.452 17.7292C477.564 17.7253 477.671 17.6778 477.749 17.5968C477.795 17.5557 477.823 17.4983 477.828 17.4367L477.814 16.941C477.804 16.4361 477.795 16.0364 478.045 15.7789C478.224 15.5956 478.516 15.5089 478.963 15.5063L480.499 15.4891H480.516C481.585 15.4891 482.289 16.0701 482.313 16.9721L482.326 17.6432C482.332 17.8834 482.272 18.0634 482.143 18.1925C481.898 18.4373 481.471 18.4274 480.977 18.4148C480.865 18.4148 480.749 18.4095 480.63 18.4095H480.564L478.487 18.4267C477.428 18.4353 476.556 18.7417 476.027 19.287C475.614 19.7132 475.414 20.2645 475.431 20.9249L475.469 22.6158C475.498 23.8381 476.721 24.8241 478.2 24.8241H478.227L483.308 24.7792H483.383L488.908 24.6137C488.932 24.6086 488.954 24.5941 488.967 24.5734C489.026 24.4731 489.048 24.3551 489.028 24.2405ZM483.768 22.7184C483.443 23.0552 482.953 23.2438 482.39 23.2478L481.188 23.2557H481.168C480.094 23.2557 479.333 22.6297 479.315 21.727L479.309 21.5053C479.302 21.3155 479.334 21.1262 479.402 20.949C479.47 20.7717 479.574 20.6102 479.706 20.4743C480.037 20.1341 480.536 19.9449 481.117 19.9382L482.351 19.927C483.578 19.9164 484.147 20.6874 484.163 21.4557L484.172 21.6761C484.178 21.8675 484.146 22.0584 484.077 22.237C484.007 22.4156 483.903 22.5783 483.768 22.7151V22.7184Z" fill="white"/>
<path d="M486.735 13.8207L486.731 13.556H486.786C486.8 13.5542 486.814 13.5553 486.827 13.559C486.841 13.5628 486.853 13.5692 486.864 13.5778C486.906 13.6195 486.941 13.6686 486.965 13.7227L487.019 13.82H487.135L487.061 13.6989C487.036 13.6538 487.007 13.6116 486.972 13.5732C486.957 13.5597 486.941 13.5485 486.922 13.5401C486.945 13.5386 486.968 13.5326 486.989 13.5222C487.01 13.5119 487.028 13.4975 487.043 13.4799C487.072 13.4462 487.087 13.403 487.086 13.3588C487.084 13.3261 487.074 13.2943 487.057 13.2661C487.038 13.2385 487.011 13.2174 486.98 13.2059C486.931 13.192 486.88 13.1864 486.829 13.1893H486.63L486.645 13.8247L486.735 13.8207ZM486.836 13.2727C486.868 13.2714 486.9 13.2752 486.931 13.284C486.946 13.2915 486.96 13.3029 486.97 13.3171C486.981 13.3312 486.987 13.3487 486.987 13.3667C486.987 13.3793 486.985 13.3918 486.98 13.4032C486.974 13.4147 486.967 13.4248 486.957 13.4329C486.925 13.4566 486.884 13.4672 486.844 13.4627H486.728L486.722 13.2694L486.836 13.2727Z" fill="white"/>
<path d="M486.616 14.0067C486.699 14.0543 486.793 14.0796 486.888 14.0801C486.983 14.0797 487.076 14.0529 487.157 14.0027C487.242 13.9501 487.31 13.8732 487.351 13.7817C487.396 13.69 487.419 13.589 487.416 13.487C487.414 13.385 487.388 13.285 487.339 13.1953C487.292 13.104 487.219 13.0287 487.129 12.9789C487.049 12.931 486.958 12.9048 486.864 12.9028C486.771 12.906 486.68 12.9329 486.6 12.9809C486.515 13.0346 486.446 13.1109 486.401 13.2013C486.356 13.2936 486.334 13.3951 486.335 13.4978C486.338 13.5995 486.365 13.6992 486.413 13.789C486.46 13.8784 486.53 13.9536 486.616 14.0067ZM486.477 13.2496C486.513 13.1737 486.57 13.1103 486.642 13.0676C486.708 13.0247 486.784 13.0018 486.862 13.0014C486.941 13.0013 487.019 13.0221 487.088 13.0617C487.161 13.1039 487.221 13.167 487.259 13.243C487.302 13.3175 487.326 13.4013 487.33 13.4872C487.33 13.572 487.311 13.6558 487.273 13.732C487.24 13.809 487.183 13.8733 487.11 13.9154C487.044 13.9586 486.967 13.9816 486.888 13.9815C486.806 13.9807 486.725 13.9578 486.654 13.9152C486.583 13.8726 486.525 13.8119 486.486 13.7393C486.444 13.6644 486.421 13.5803 486.42 13.4945C486.418 13.4101 486.438 13.3268 486.477 13.2523V13.2496Z" fill="white"/>
</svg>
