<svg width="141" height="21" viewBox="0 0 141 21" fill="none" xmlns="http://www.w3.org/2000/svg">
<path fill-rule="evenodd" clip-rule="evenodd" d="M86.5519 0.000310278H74.0657C73.5152 -0.00266939 72.9698 0.102782 72.4601 0.31065C71.9504 0.518545 71.4865 0.824769 71.0954 1.21187C70.7041 1.59897 70.3928 2.05937 70.1794 2.56674C69.966 3.07413 69.8545 3.61859 69.8516 4.169V20.9999H74.1083V14.1012H86.5377V20.9999H90.7944V4.169C90.7916 3.61618 90.6792 3.06939 90.4641 2.56013C90.2487 2.05089 89.9351 1.58924 89.5407 1.20174C89.1465 0.81427 88.6794 0.508641 88.1663 0.302448C87.6533 0.0962555 87.1047 -0.00641525 86.5519 0.000310278ZM86.5207 9.90131H74.0913V4.20022H86.5207V9.90131ZM28.9141 0.000289756H41.7153C42.2658 -0.00268991 42.8113 0.102762 43.3209 0.310629C43.8306 0.518525 44.2946 0.824749 44.6856 1.21185C45.0769 1.59895 45.3882 2.05935 45.6016 2.56672C45.815 3.07411 45.9266 3.61857 45.9294 4.16898V16.8311C45.9266 17.3816 45.815 17.926 45.6016 18.4334C45.3882 18.9408 45.0769 19.4012 44.6856 19.7883C44.2946 20.1754 43.8306 20.4816 43.3209 20.6895C42.8113 20.8974 42.2658 21.0028 41.7153 20.9998H28.9141C28.3627 21.0043 27.8159 20.9 27.3048 20.6928C26.794 20.4855 26.3289 20.1796 25.9364 19.7923C25.5437 19.4051 25.2315 18.9442 25.0175 18.436C24.8033 17.9279 24.6915 17.3825 24.6887 16.8311V4.16898C24.6915 3.6176 24.8033 3.07221 25.0175 2.56408C25.2315 2.05595 25.5437 1.59506 25.9364 1.20782C26.3289 0.820549 26.794 0.51458 27.3048 0.307366C27.8159 0.100151 28.3627 -0.00419393 28.9141 0.000289756ZM28.9453 16.7999H41.6841L41.6784 4.2002H28.9453V16.7999ZM4.25666 8.40009H17.0096C17.5604 8.39711 18.1067 8.50276 18.6167 8.711C19.1266 8.91923 19.5906 9.22597 19.9822 9.61367C20.3735 10.0014 20.6846 10.4624 20.8977 10.9705C21.1108 11.4785 21.2215 12.0236 21.2237 12.5745V16.8311C21.2209 17.3815 21.1094 17.926 20.896 18.4334C20.6826 18.9408 20.3713 19.4012 19.9799 19.7883C19.5886 20.1754 19.1249 20.4816 18.6152 20.6895C18.1056 20.8973 17.5602 21.0028 17.0096 20.9998H0.303644V16.7999H16.9841V12.6H4.2141C3.66329 12.603 3.11701 12.4974 2.60706 12.2891C2.09712 12.0809 1.63314 11.7741 1.24153 11.3864C0.850198 10.9987 0.539178 10.5377 0.326061 10.0296C0.112944 9.52161 0.00227022 8.97653 0 8.42563V4.16897C0.00283778 3.61855 0.114362 3.0741 0.327763 2.5667C0.541164 2.05934 0.852467 1.59893 1.2438 1.21183C1.63484 0.824733 2.09882 0.518508 2.60848 0.310613C3.11815 0.102746 3.66357 -0.00270574 4.2141 0.000273925H20.3242V4.20018H4.25666V8.40009ZM123.77 0.000325956H136.256C136.806 -0.00265371 137.352 0.102798 137.861 0.310665C138.371 0.51856 138.835 0.824785 139.226 1.21189C139.617 1.59899 139.929 2.05939 140.142 2.56675C140.355 3.07415 140.467 3.6186 140.47 4.16902V20.9999H136.213V14.1012H123.812V20.9999H119.555V4.16902C119.558 3.6186 119.67 3.07415 119.883 2.56675C120.097 2.05939 120.408 1.59899 120.799 1.21189C121.191 0.824785 121.654 0.51856 122.164 0.310665C122.674 0.102798 123.219 -0.00265371 123.77 0.000325956ZM123.784 9.90133H136.213V4.20023H123.784V9.90133ZM111.524 16.7999H109.822L103.735 1.75972C103.526 1.24083 103.167 0.796127 102.704 0.482666C102.241 0.169177 101.695 0.001209 101.135 0.00030091H97.3581C96.9909 -0.00157202 96.6271 0.0688898 96.2874 0.207629C95.9475 0.346396 95.6384 0.550716 95.3774 0.808954C95.1166 1.06722 94.9091 1.3743 94.767 1.71273C94.6248 2.05113 94.5507 2.41426 94.5487 2.78132V20.9998H98.8054V4.20021H100.508L106.592 19.2404C106.804 19.7583 107.166 20.2012 107.631 20.5126C108.096 20.824 108.643 20.9896 109.203 20.9885H112.98C113.347 20.9904 113.711 20.9199 114.051 20.7812C114.391 20.6424 114.7 20.4381 114.961 20.1798C115.222 19.9216 115.429 19.6145 115.571 19.2761C115.713 18.9377 115.788 18.5746 115.79 18.2075V0.00030091H111.524V16.7999ZM49.6893 0.00030232H53.946V16.7999H66.6876V20.9998H53.9176C53.3659 21.0047 52.8188 20.9006 52.3074 20.6936C51.7963 20.4865 51.3307 20.1806 50.9379 19.7933C50.5452 19.406 50.2327 18.945 50.0185 18.4367C49.8042 17.9284 49.6921 17.3828 49.6893 16.8312V0.00030232Z" fill="white"/>
</svg>
