<svg width="36" height="32" viewBox="0 0 36 32" fill="none" xmlns="http://www.w3.org/2000/svg">
<path d="M35.5928 25.23L29.6862 31.5633C29.5584 31.7009 29.4037 31.8107 29.2316 31.8858C29.0596 31.9609 28.8739 31.9998 28.6862 32H0.686277C0.552734 31.9999 0.422108 31.9609 0.310395 31.8877C0.198685 31.8146 0.110739 31.7104 0.0573225 31.588C0.0039061 31.4656 -0.0126605 31.3303 0.00965273 31.1986C0.031966 31.067 0.0921857 30.9446 0.182945 30.8467L6.08292 24.5134C6.21069 24.3758 6.36539 24.266 6.53745 24.1909C6.70949 24.1158 6.89518 24.0769 7.08292 24.0767H35.0828C35.2175 24.0739 35.3501 24.1111 35.4638 24.1835C35.5775 24.2559 35.6675 24.3603 35.7218 24.4835C35.7765 24.6068 35.7931 24.7435 35.7701 24.8763C35.7471 25.0092 35.6855 25.1322 35.5928 25.23ZM29.6862 12.4734C29.5579 12.3365 29.4031 12.2271 29.2312 12.152C29.0592 12.077 28.8738 12.0377 28.6862 12.0368H0.686277C0.552734 12.0368 0.422108 12.0758 0.310395 12.149C0.198685 12.2222 0.110739 12.3264 0.0573225 12.4488C0.0039061 12.5712 -0.0126605 12.7065 0.00965273 12.8381C0.031966 12.9698 0.0921857 13.0921 0.182945 13.1901L6.08292 19.5268C6.21115 19.6637 6.36599 19.773 6.53792 19.8481C6.70985 19.9232 6.89532 19.9624 7.08292 19.9634H35.0828C35.2161 19.9627 35.3461 19.9232 35.4575 19.8498C35.5688 19.7764 35.6561 19.6722 35.7091 19.5499C35.7621 19.4276 35.7785 19.2926 35.7558 19.1612C35.7335 19.0298 35.6735 18.9078 35.5828 18.8101L29.6862 12.4734ZM0.686277 7.92343H28.6862C28.8739 7.92326 29.0596 7.88436 29.2316 7.80923C29.4037 7.73413 29.5584 7.62433 29.6862 7.48677L35.5928 1.15347C35.6855 1.05565 35.7471 0.932579 35.7701 0.79975C35.7931 0.66692 35.7765 0.530264 35.7218 0.406978C35.6675 0.283692 35.5775 0.179285 35.4638 0.106894C35.3501 0.034503 35.2175 -0.00263763 35.0828 0.000145734H7.08292C6.89518 0.000343346 6.70949 0.0392183 6.53745 0.114347C6.36539 0.189475 6.21069 0.299245 6.08292 0.436811L0.182945 6.7701C0.0921857 6.86807 0.031966 6.9904 0.00965273 7.12207C-0.0126605 7.25373 0.0039061 7.38903 0.0573225 7.51143C0.110739 7.63383 0.198685 7.738 0.310395 7.81116C0.422108 7.88436 0.552734 7.92336 0.686277 7.92343Z" fill="url(#paint0_linear_1_9)"/>
<defs>
<linearGradient id="paint0_linear_1_9" x1="5.09872e-07" y1="16" x2="29.7394" y2="2.35494" gradientUnits="userSpaceOnUse">
<stop offset="0.08" stop-color="#9945FF"/>
<stop offset="0.3" stop-color="#8752F3"/>
<stop offset="0.5" stop-color="#5497D5"/>
<stop offset="0.6" stop-color="#43B4CA"/>
<stop offset="0.72" stop-color="#28E0B9"/>
<stop offset="1" stop-color="#19FB9B"/>
</linearGradient>
</defs>
</svg>
