<svg width="155" height="28" viewBox="0 0 155 28" fill="none" xmlns="http://www.w3.org/2000/svg">
<g clip-path="url(#clip0_1_314)">
<path d="M30.179 21.6985L25.171 27.0305C25.0631 27.1475 24.9319 27.2407 24.7859 27.304C24.6398 27.3674 24.4822 27.3996 24.323 27.3985H0.583007C0.469849 27.3979 0.359248 27.3648 0.26439 27.3031C0.169533 27.2414 0.0944197 27.1537 0.0480067 27.0505C0.00246329 26.9475 -0.0114593 26.8334 0.00800667 26.7225C0.0278904 26.611 0.0792456 26.5076 0.156007 26.4245L5.15801 21.0925C5.26586 20.9754 5.39702 20.8821 5.54307 20.8187C5.68912 20.7554 5.84681 20.7233 6.00601 20.7245H29.746C29.8598 20.7214 29.9719 20.7522 30.0682 20.813C30.1644 20.8737 30.2404 20.9618 30.2865 21.0658C30.3326 21.1699 30.3467 21.2853 30.327 21.3975C30.3073 21.5096 30.2548 21.6133 30.176 21.6955L30.179 21.6985ZM25.17 10.9585C25.0603 10.8438 24.9288 10.7521 24.7831 10.6889C24.6375 10.6257 24.4807 10.5923 24.322 10.5905H0.583007C0.469739 10.5912 0.35906 10.6244 0.264191 10.6863C0.169322 10.7482 0.0942726 10.8361 0.0480067 10.9395C0.00252191 11.0424 -0.0113985 11.1566 0.00800667 11.2675C0.0280067 11.3795 0.0790067 11.4805 0.156007 11.5645L5.15801 16.8995C5.26501 17.0145 5.39801 17.1075 5.54201 17.1695C5.68901 17.2335 5.84501 17.2645 6.00601 17.2675H29.746C29.8586 17.2677 29.9688 17.2349 30.0628 17.173C30.1569 17.1111 30.2307 17.023 30.275 16.9195C30.3206 16.8166 30.3347 16.7025 30.3155 16.5916C30.2963 16.4807 30.2446 16.378 30.167 16.2965L25.167 10.9615L25.17 10.9585ZM0.582007 7.12847H24.322C24.4815 7.12763 24.6393 7.09499 24.786 7.03247C24.933 6.96847 25.063 6.87847 25.17 6.76047L30.18 1.42847C30.2378 1.36671 30.2814 1.29302 30.3077 1.2126C30.3339 1.13219 30.3423 1.04699 30.3321 0.963008C30.3219 0.879025 30.2934 0.798298 30.2486 0.726507C30.2039 0.654715 30.1439 0.593604 30.073 0.547472C29.9768 0.485824 29.8643 0.454472 29.75 0.457472H6.00601C5.84801 0.457472 5.68901 0.491472 5.54201 0.552472C5.39619 0.615375 5.26532 0.708411 5.15801 0.825472L0.156007 6.15747C0.0794866 6.24004 0.0285563 6.34304 0.00938724 6.45397C-0.00978182 6.5649 0.00363318 6.67901 0.0480067 6.78247C0.0943491 6.88552 0.169307 6.9731 0.26397 7.03479C0.358633 7.09648 0.469019 7.12969 0.582007 7.13047V7.12847Z" fill="white"/>
<path fill-rule="evenodd" clip-rule="evenodd" d="M110.896 5.4192H100.812C100.368 5.41679 99.9275 5.50195 99.5159 5.66981C99.1043 5.8377 98.7296 6.08499 98.4138 6.3976C98.0978 6.71021 97.8464 7.08201 97.6741 7.49173C97.5017 7.90148 97.4117 8.34116 97.4094 8.78565V22.3775H100.847V16.8065H110.884V22.3775H114.322V8.78565C114.32 8.33921 114.229 7.89766 114.055 7.48639C113.881 7.07515 113.628 6.70235 113.309 6.38942C112.991 6.07651 112.614 5.8297 112.2 5.66319C111.785 5.49668 111.342 5.41376 110.896 5.4192ZM110.871 13.4148H100.833V8.81086H110.871V13.4148ZM64.3498 5.41917H74.6875C75.1321 5.41677 75.5725 5.50192 75.9841 5.66979C76.3957 5.83768 76.7704 6.08497 77.0862 6.39758C77.4022 6.71018 77.6536 7.08198 77.8259 7.49171C77.9983 7.90146 78.0883 8.34114 78.0906 8.78563V19.011C78.0883 19.4555 77.9983 19.8952 77.8259 20.305C77.6536 20.7147 77.4022 21.0865 77.0862 21.3991C76.7704 21.7117 76.3957 21.959 75.9841 22.1269C75.5725 22.2948 75.1321 22.3799 74.6875 22.3775H64.3498C63.9045 22.3811 63.4629 22.2969 63.0502 22.1295C62.6377 21.9622 62.2621 21.7151 61.9452 21.4024C61.628 21.0896 61.3759 20.7174 61.2031 20.3071C61.0301 19.8968 60.9398 19.4563 60.9375 19.011V8.78563C60.9398 8.34036 61.0301 7.89992 61.2031 7.48958C61.3759 7.07923 61.628 6.70704 61.9452 6.39432C62.2621 6.08158 62.6377 5.83449 63.0502 5.66715C63.4629 5.49982 63.9045 5.41555 64.3498 5.41917ZM64.375 18.9858H74.6623L74.6577 8.81084H64.375V18.9858ZM44.4375 12.2025H54.7363C55.1811 12.2001 55.6222 12.2855 56.034 12.4536C56.4458 12.6218 56.8205 12.8695 57.1368 13.1826C57.4528 13.4957 57.704 13.868 57.8761 14.2783C58.0482 14.6885 58.1375 15.1287 58.1394 15.5736V19.0111C58.1371 19.4556 58.047 19.8953 57.8747 20.305C57.7024 20.7148 57.451 21.0865 57.1349 21.3991C56.8189 21.7118 56.4445 21.959 56.0329 22.1269C55.6213 22.2948 55.1808 22.38 54.7363 22.3776H41.2452V18.9859H54.7156V15.5942H44.4031C43.9583 15.5966 43.5172 15.5113 43.1054 15.3432C42.6935 15.175 42.3189 14.9273 42.0026 14.6142C41.6866 14.3011 41.4354 13.9288 41.2633 13.5185C41.0912 13.1082 41.0018 12.6681 41 12.2232V8.78567C41.0023 8.34118 41.0924 7.9015 41.2647 7.49175C41.437 7.08203 41.6884 6.71023 42.0044 6.39762C42.3202 6.08501 42.6949 5.83772 43.1065 5.66983C43.5181 5.50197 43.9585 5.41681 44.4031 5.41922H57.4129V8.81088H44.4375V12.2025ZM140.951 5.41922H151.034C151.479 5.41681 151.919 5.50197 152.331 5.66983C152.743 5.83772 153.117 6.08501 153.433 6.39762C153.749 6.71023 154 7.08203 154.173 7.49175C154.345 7.9015 154.435 8.34118 154.438 8.78567V22.3775H151V16.8065H140.985V22.3775H137.548V8.78567C137.55 8.34118 137.64 7.9015 137.813 7.49175C137.985 7.08203 138.236 6.71023 138.552 6.39762C138.868 6.08501 139.243 5.83772 139.654 5.66983C140.066 5.50197 140.506 5.41681 140.951 5.41922ZM140.963 13.4148H151V8.81088H140.963V13.4148ZM131.062 18.9859H129.688L124.772 6.84003C124.603 6.421 124.314 6.06187 123.94 5.80873C123.566 5.55557 123.124 5.41993 122.673 5.4192H119.622C119.326 5.41768 119.032 5.47459 118.758 5.58662C118.483 5.69869 118.234 5.86369 118.023 6.07223C117.812 6.28079 117.645 6.52878 117.53 6.80208C117.415 7.07536 117.355 7.3686 117.354 7.66503V22.3775H120.791V8.81086H122.166L127.08 20.9567C127.251 21.3749 127.543 21.7326 127.919 21.984C128.294 22.2355 128.736 22.3693 129.188 22.3684H132.238C132.535 22.3699 132.828 22.313 133.103 22.2009C133.377 22.0889 133.627 21.9239 133.838 21.7153C134.048 21.5068 134.216 21.2588 134.331 20.9855C134.445 20.7122 134.505 20.419 134.507 20.1225V5.4192H131.062V18.9859ZM81.1271 5.41917H84.5646V18.9858H94.8542V22.3775H84.5417C84.0962 22.3814 83.6543 22.2974 83.2414 22.1302C82.8286 21.963 82.4526 21.7159 82.1354 21.4032C81.8182 21.0904 81.5659 20.7181 81.3929 20.3076C81.2199 19.8971 81.1294 19.4565 81.1271 19.011V5.41917Z" fill="white"/>
</g>
<defs>
<clipPath id="clip0_1_314">
<rect width="154.438" height="27" fill="white" transform="translate(0 0.398438)"/>
</clipPath>
</defs>
</svg>
